<svg xmlns="http://www.w3.org/2000/svg" id="prefix__Sepand_Logo" width="52.56" height="52" data-name="Sepand Logo" viewBox="0 0 52.56 52">
    <defs>
        <style>
            .prefix__cls-2{fill:none}
        </style>
    </defs>
    <g id="prefix__Layer_1-2" data-name="Layer 1-2">
        <path id="prefix__Path_4" d="M50.127 19.157l5.88-5.387 5.96 5.46-5.88 5.394zm16.862 25.755l-10.881 9.967-.229-.209-.24.219L44.73 44.9l5.884-5.387 5.265 4.824 5.237-4.8z" data-name="Path 4" transform="translate(-29.359 -9.158)" style="fill-rule:evenodd;fill:#5c1449"/>
        <path id="prefix__Path_5" d="M44.973 15.795a73.89 73.89 0 0 0-9.96 7.646l2.487-3.824s-3.583-3.378-4.142-3.058-4.98 5.352-4.98 5.352a31.142 31.142 0 0 0 1.658-4.587c.469-1.974 0-2.294 0-2.294s-3.27-4.24-4.149-3.823.348 5.508-5.811 9.175a17.7 17.7 0 0 1-9.79 2.12 6.857 6.857 0 0 1-.17-1.355C10.113 9.744 20.156.5 32.525.5a22.666 22.666 0 0 1 20.128 11.569 83.111 83.111 0 0 0-7.68 3.726zM32.7 7.193l3.5 3.646a22.638 22.638 0 0 0-2.558 2.193 6.951 6.951 0 0 0-1.171 1.682l-3.256-3.374s-.511-.587.838-1.863C31.173 8.41 32.7 7.193 32.7 7.193z" class="prefix__cls-2" data-name="Path 5" transform="translate(-6.777 -.5)"/>
        <path id="prefix__Ellipse_1_copy" d="M44.973 15.795a73.89 73.89 0 0 0-9.96 7.646l2.487-3.824s-3.583-3.378-4.142-3.058-4.98 5.352-4.98 5.352a31.142 31.142 0 0 0 1.658-4.587c.469-1.974 0-2.294 0-2.294s-3.27-4.24-4.149-3.823.348 5.508-5.811 9.175a17.7 17.7 0 0 1-9.79 2.12 6.857 6.857 0 0 1-.17-1.355C10.113 9.744 20.156.5 32.525.5a22.666 22.666 0 0 1 20.128 11.569 83.111 83.111 0 0 0-7.68 3.726zM32.7 7.193l3.5 3.646a22.638 22.638 0 0 0-2.558 2.193 6.951 6.951 0 0 0-1.171 1.682l-3.256-3.374s-.511-.587.838-1.863C31.173 8.41 32.7 7.193 32.7 7.193z" data-name="Ellipse 1 copy" transform="translate(-6.777 -.5)" style="fill:#ffa200;fill-rule:evenodd"/>
        <path id="prefix__Shape_1_copy" d="M.5 57.125a24.719 24.719 0 0 0 9.147-.059A39.2 39.2 0 0 0 17.946 54s-2.648 2.547-3.319 3.062a1.358 1.358 0 0 0 0 2.294c.99.9 1.189 1.783 2.488 1.529s9.133-6.116 9.133-6.116-2.026 3.6-2.492 4.587-.782.921.831 2.294 2.745 1.974 4.149 0a35.8 35.8 0 0 1 7.472-8.414c5.62-4.761 14.534-7.569 16.852-8.236l-.26 1.359a23.237 23.237 0 0 0-4.351 1.7c.035.462.2 1.654.2 2.127a19.586 19.586 0 0 1-4.97 12.966c-4.079 4.68-16.507 18.383-17.431 18.383-1.011 0-13.3-13.686-17.411-18.353a17.866 17.866 0 0 1-2.853-4.375A40.9 40.9 0 0 1 .5 58.248zm20.636 4.949l3.579 3.59A23.329 23.329 0 0 0 22.2 67.9a7.02 7.02 0 0 0-1.14 1.7l-3.33-3.321s-.525-.57.806-1.877c1.099-1.07 2.6-2.328 2.6-2.328zM26.071 67l3.576 3.59a22.618 22.618 0 0 0-2.52 2.235 6.842 6.842 0 0 0-1.136 1.7L22.662 71.2s-.521-.57.806-1.877C24.57 68.239 26.071 67 26.071 67zm5.129 2.431l-3.576-3.607a22.712 22.712 0 0 0 2.52-2.245 6.95 6.95 0 0 0 1.136-1.71l3.326 3.34s.525.573-.8 1.887c-1.1 1.088-2.6 2.335-2.6 2.335z" data-name="Shape 1 copy" transform="translate(-.5 -29.535)" style="fill:#fff;fill-rule:evenodd"/>
        <path id="prefix__Path_6" d="M.5 57.125a24.719 24.719 0 0 0 9.147-.059A39.2 39.2 0 0 0 17.946 54s-2.648 2.547-3.319 3.062a1.358 1.358 0 0 0 0 2.294c.99.9 1.189 1.783 2.488 1.529s9.133-6.116 9.133-6.116-2.026 3.6-2.492 4.587-.782.921.831 2.294 2.745 1.974 4.149 0a35.8 35.8 0 0 1 7.472-8.414c5.62-4.761 14.534-7.569 16.852-8.236l-.26 1.359a23.237 23.237 0 0 0-4.351 1.7c.035.462.2 1.654.2 2.127a19.586 19.586 0 0 1-4.97 12.966c-4.079 4.68-16.507 18.383-17.431 18.383-1.011 0-13.3-13.686-17.411-18.353a17.866 17.866 0 0 1-2.853-4.375A40.9 40.9 0 0 1 .5 58.248zm20.636 4.949l3.579 3.59A23.329 23.329 0 0 0 22.2 67.9a7.02 7.02 0 0 0-1.14 1.7l-3.33-3.321s-.525-.57.806-1.877c1.099-1.07 2.6-2.328 2.6-2.328zM26.071 67l3.576 3.59a22.618 22.618 0 0 0-2.52 2.235 6.842 6.842 0 0 0-1.136 1.7L22.662 71.2s-.521-.57.806-1.877C24.57 68.239 26.071 67 26.071 67zm5.129 2.431l-3.576-3.607a22.712 22.712 0 0 0 2.52-2.245 6.95 6.95 0 0 0 1.136-1.71l3.326 3.34s.525.573-.8 1.887c-1.1 1.088-2.6 2.335-2.6 2.335z" class="prefix__cls-2" data-name="Path 6" transform="translate(-.5 -29.535)"/>
    </g>
</svg>
