<svg xmlns="http://www.w3.org/2000/svg" width="204.17" height="19.905" viewBox="0 0 204.17 19.905">
    <defs>
        <style>
            .prefix__cls-1{fill:#fff}
        </style>
    </defs>
    <g id="prefix__Layer_1-2" data-name="Layer 1-2" transform="translate(-3302.306 -159.756)">
        <path id="prefix__Path_776" d="M3712.946 187a2.787 2.787 0 0 0 1.58.389c1.495.051 3.378.054 4.876 0a2.553 2.553 0 0 0 2.594-2.506v-4.044c-1.817-.149-2.55.483-2.6 2.006v1.122a.8.8 0 0 1-.671.916.9.9 0 0 1-.243 0h-3.558c-.723 0-1.011-.36-1.011-1.04v-1.684c0-.828-.382-1.324-1.22-1.333a1.169 1.169 0 0 0-1.264 1.046 1.358 1.358 0 0 0 0 .256c0 .7.025 1.343.025 1.987 0 .578-.288.986-.837.986a.854.854 0 0 1-.894-.809.987.987 0 0 1 0-.161v-1.981a1.222 1.222 0 0 0-1.077-1.349 1.028 1.028 0 0 0-.171 0c-.736-.038-1.264.537-1.3 1.406-.025.562 0 1.125 0 1.687 0 .616-.142 1.2-.866 1.2s-.869-.569-.859-1.194v-3.046c-1.675-.221-2.449.395-2.483 1.918-.035 1.4 0 2.809-.047 4.212s-.85 2.076-2.323 2.133a2.167 2.167 0 0 1-2.483-1.795 1.494 1.494 0 0 1-.019-.167c-.085-.708-.038-1.431-.069-2.149-.067-1.6-.724-2.158-2.436-1.975 0 1.611-.123 3.179.025 4.717a3.939 3.939 0 0 0 4.262 3.817c.468 0 .948 0 1.4-.016a4.34 4.34 0 0 0 4.073-3.1c.044-.414.079-.679.139-1.011a3.159 3.159 0 0 0 3.314-.761c1.006 1.408 3.034 1.143 4.143.323z" class="prefix__cls-1" data-name="Path 776" transform="translate(-268.983 -14.396)"/>
        <path id="prefix__Path_777" d="M3451.253 187.177c.145-.088.278-.25.389-.19.787.632 2.771.427 4.158.427a2.794 2.794 0 0 0 3.052-2.508 2.527 2.527 0 0 0 0-.316c.076-1.21 0-2.43 0-3.7-1.615 0-2.42.354-2.42 1.58V184c0 .689-.3.97-.869.97h-2.177c-.632 0-.948-.269-.922-.919v-1.781c0-.992-.465-1.416-1.264-1.416s-1.264.483-1.264 1.416c0 .654.019 1.264.019 1.9a.9.9 0 1 1-1.792.136.828.828 0 0 1 0-.085v-1.848c-.019-1.014-.376-1.545-1.175-1.545s-1.305.559-1.305 1.52v1.9a.856.856 0 0 1-.862.85h-.035a.828.828 0 0 1-.834-.822v-3.4c-1.757-.161-2.442.43-2.455 2 0 1.374.032 2.749-.028 4.108-.063 1.447-.948 2.171-2.509 2.155a2.149 2.149 0 0 1-2.357-1.918 1.767 1.767 0 0 1 0-.288c-.032-.749.022-1.5-.038-2.247a1.693 1.693 0 0 0-1.649-1.713c-.569-.047-.768-.038-.853.047v3.239c.019 4.07 1.535 5.5 5.627 5.321a4.393 4.393 0 0 0 4.108-3.242c.076-.262.152-.521.25-.85a3.16 3.16 0 0 0 3.292-.8 3.249 3.249 0 0 0 3.913.489z" class="prefix__cls-1" data-name="Path 777" transform="translate(-90.124 -14.41)"/>
        <path id="prefix__Path_778" d="M3591.723 178.237c2.967.016 5.934.022 8.9 0a2.952 2.952 0 0 0 3.052-2.844v-.152c.085-2.272-1.094-3.5-3.378-3.517h-3.77c1.125-.771 1.665-1.2 2.635-1.871.888-.61.989-1.472.06-2.461-1.779 1.169-3.792 2.474-5.567 3.687-.209.145-.139.433-.107.708.171 1.5 1.1 2.231 2.9 2.284 1.343.038 2.689-.025 4.026.066a.841.841 0 0 1 .755.809.7.7 0 0 1-.623.767h-.724c-2.187 0-4.37.025-6.556.025-1.362 0-1.555-.2-1.558-1.58v-6.518c-1.52 0-2.424.4-2.446 1.548-.047 2.275-.054 4.559.025 6.834a2.161 2.161 0 0 0 2.1 2.212 2.351 2.351 0 0 0 .276.003z" class="prefix__cls-1" data-name="Path 778" transform="translate(-196.306 -5.224)"/>
        <path id="prefix__Path_779" d="M3313.7 185.99a2.142 2.142 0 0 0-2.123-2.161h-.146c-.56 0-.922.032-1.431 0 0-.676.344-1.141.979-1.141.461 0 .524 0 .929-.019 1.529 0 1.9-.686 1.9-2.307-1.33 0-2.31.06-3.283.06a2.771 2.771 0 0 0-2.948 2.582v.249c0 .739-.016 1.634-.016 2.755h2.313c.584 0 1.264-.1 1.482.66a1.82 1.82 0 0 1-1.464 2.117l-.1.016h-3.109a1.969 1.969 0 0 1-1.965-1.9v-4.161c-1.634 0-2.4.4-2.4 1.94v2.844a3.523 3.523 0 0 0 3.336 3.7h.316c1.027.063 2.06.06 3.09.054a4.556 4.556 0 0 0 4.7-4.392 4.247 4.247 0 0 0-.06-.896z" class="prefix__cls-1" data-name="Path 779" transform="translate(0 -14.096)"/>
        <path id="prefix__Path_780" d="M3864.574 178.832H3866a2.326 2.326 0 0 0 2.528-2.1 2.406 2.406 0 0 0 0-.265v-2.212c0-.291.1-.632.288-.689a1.747 1.747 0 0 1 2.13.73 1.659 1.659 0 0 1-.247 1.817 1.581 1.581 0 0 1-1.166.414 3.809 3.809 0 0 1-.891 2.326c.379 0 .847.028 1.312 0a3.593 3.593 0 0 0 3.438-3.536c.111-2.31-.929-3.877-2.986-4.152a31.532 31.532 0 0 0-4.107-.032v4.294c0 .553-.237.948-.831.948-.528 0-.736-.594-.755-.894-.095-1.4-.069-2.806-.079-4.209V168.3c-1.769-.092-2.474.534-2.48 2.114 0 1.9 0 3.927.019 5.83a2.528 2.528 0 0 0 2.401 2.588z" class="prefix__cls-1" data-name="Path 780" transform="translate(-382.951 -5.841)"/>
        <path id="prefix__Path_781" d="M3824.269 183.157a2.753 2.753 0 0 0 2.73-2.382c.126-1.384.028-2.787.028-4.237-1.75-.085-2.386.493-2.4 2.07v1.125c0 .616-.316.882-.922.913a3.047 3.047 0 0 1-2.844-1.179c-1.314-1.681-2.781-3.242-4.231-4.913-1.119 1.011-2.211 1.9-3.185 2.9a3.45 3.45 0 0 0 .144 4.877 3.558 3.558 0 0 0 4.834.1c-.126-.171-.247-.348-.379-.518l-1.024-1.3c-1.384.341-1.991.215-2.266-.449-.316-.78.108-1.526 1.413-2.417a24.878 24.878 0 0 1 2.379 2.866c1.311 2.133 2.913 2.673 5.491 2.55z" class="prefix__cls-1" data-name="Path 781" transform="translate(-348.993 -10.121)"/>
        <path id="prefix__Path_782" d="M3903.806 178.733h12.14c.091-1.747-.61-2.487-2.43-2.509q-4.446-.047-8.892 0c-.891 0-1.207-.316-1.188-1.21.041-2.243 0-4.6 0-6.9-1.757 0-2.5.458-2.506 2.073q0 2.9.066 5.8c.061 2.054.775 2.743 2.81 2.746z" class="prefix__cls-1" data-name="Path 782" transform="translate(-409.478 -5.716)"/>
        <path id="prefix__Path_783" d="M3564.794 188.27c.044-1.5.038-3 0-4.493v-1.194c-1.659 0-2.484.664-2.484 1.94 0 1.191 0 2.37-.038 3.558-.025 1.485-.809 2.212-2.382 2.259a2.212 2.212 0 0 1-2.474-1.9 2.443 2.443 0 0 1-.019-.316c-.038-.632 0-1.248 0-1.874-.019-1.627-.72-2.212-2.338-2.013a38.556 38.556 0 0 0 .047 5.2 3.72 3.72 0 0 0 3.984 3.327h1.125a4.4 4.4 0 0 0 4.578-4.193c.007-.083.007-.193.001-.301z" class="prefix__cls-1" data-name="Path 783" transform="translate(-172.846 -15.614)"/>
        <path id="prefix__Path_784" d="M3784.733 178.842h2.844a2.351 2.351 0 0 0 2.527-2.16v-.175c0-1.4.042-2.793.042-4.2-1.687 0-2.55.376-2.55 1.867v1.16c0 .5-.161.948-.742.948h-1.526a.815.815 0 0 1-.736-.882c-.047-1.962 0-4.424-.044-6.383v-.758c-1.479 0-2.427.54-2.446 1.539-.044 2.243-.079 4.49.038 6.73.081 1.625.96 2.301 2.593 2.314z" class="prefix__cls-1" data-name="Path 784" transform="translate(-328.166 -5.819)"/>
        <path id="prefix__Path_785" d="M3668.253 178.768a2.793 2.793 0 0 0 2.742-2.585c.1-1.109.019-2.231.019-3.4-1.677-.183-2.373.344-2.43 1.754-.066 1.754-.073 1.722-1.823 1.744-.878 0-1.223-.288-1.2-1.191v-6.9c-1.441 0-2.48.531-2.48 1.58 0 2.4.025 4.367.025 6.844a2.146 2.146 0 0 0 2.12 2.164h.123a27.815 27.815 0 0 0 2.904-.01z" class="prefix__cls-1" data-name="Path 785" transform="translate(-246.781 -5.764)"/>
        <path id="prefix__Path_786" d="M3531.845 183.741a2.022 2.022 0 0 0 1.83-1.747 3.046 3.046 0 0 0-.717-2.875q-1.384-1.523-2.844-2.992a1.188 1.188 0 0 0-1.659-.246 1.516 1.516 0 0 0-.151.133 1.184 1.184 0 0 0-.152 1.668 1.006 1.006 0 0 0 .155.152c.755.834 1.529 1.646 2.281 2.48a10.889 10.889 0 0 1 .7 1c-.948.051-1.678.07-2.4.136-1.362.13-1.975 1.055-1.58 2.512 1.492-.069 3.021-.095 4.537-.221z" class="prefix__cls-1" data-name="Path 786" transform="translate(-153.825 -10.87)"/>
        <path id="prefix__Path_787" d="M3343.441 186.832c.069-1.934.025-3.871.022-5.807v-.692c-1.709 0-2.436.518-2.436 1.779s-.028 3 0 4.281c.028 1.068-.187 1.82-1.213 2.095-1.362.363-1.7 1.264-1.7 2.812 3.861-.009 5.223-1.456 5.327-4.468z" class="prefix__cls-1" data-name="Path 787" transform="translate(-24.491 -14.075)"/>
        <path id="prefix__Path_788" d="M3422.283 177.333c.076-2.954.025-5.912.025-8.913-1.861-.2-2.528.376-2.528 2.095v8.294c1.511.24 2.472-.272 2.503-1.476z" class="prefix__cls-1" data-name="Path 788" transform="translate(-80.356 -5.9)"/>
        <path id="prefix__Path_789" d="M3516.441 178.831c1.728.243 2.509-.4 2.528-2.047.019-2.585 0-5.166 0-7.751a3.8 3.8 0 0 0-.085-.594c-1.58-.228-2.4.436-2.436 1.931v1.962z" class="prefix__cls-1" data-name="Path 789" transform="translate(-146.474 -5.909)"/>
        <path id="prefix__Path_790" d="M3415.413 161.537c.929 0 1.466-.025 2.392-.025s1.318-.559 1.318-1.735c-1.454 0-2.914-.047-4.373 0a3.159 3.159 0 0 0-3.059 2.468c.647.224.809.224 1.64.442a2.047 2.047 0 0 1 2.082-1.15z" class="prefix__cls-1" data-name="Path 790" transform="translate(-74.822)"/>
        <path id="prefix__Path_791" d="M3758.366 204.98l-1.63 1.747-1.77-1.864c-1.9 1.264-1.924 1.912-.186 3.441l1.719-1.766 1.713 1.915c1.902-1.353 1.899-1.963.154-3.473z" class="prefix__cls-1" data-name="Path 791" transform="translate(-308.637 -30.854)"/>
        <path id="prefix__Path_792" d="M3601.537 166.945c1.412-.859 3.084-1.987 4.465-2.894a.55.55 0 0 0 .2-.749.631.631 0 0 0-.853-.054c-1.45.916-2.964 1.931-4.367 2.923a.575.575 0 0 0-.2.711c.199.304.556.183.755.063z" class="prefix__cls-1" data-name="Path 792" transform="translate(-204.132 -2.293)"/>
        <path id="prefix__Path_793" d="M3676.881 173.73l1.668-1.817-1.52-1.63c-1.929 1.106-1.946 2.041-.148 3.447z" class="prefix__cls-1" data-name="Path 793" transform="translate(-255.314 -7.201)"/>
        <path id="prefix__Path_794" d="M3843.443 173.614l1.662-1.807-1.554-1.684c-1.909 1.393-1.9 2.145-.108 3.491z" class="prefix__cls-1" data-name="Path 794" transform="translate(-369.242 -7.091)"/>
        <path id="prefix__Path_795" d="M3566.957 184.557l1.633-1.792c-.433-.468-.828-.9-1.232-1.337-.1-.114-.221-.209-.316-.316-1.899 1.233-1.902 2.26-.085 3.445z" class="prefix__cls-1" data-name="Path 795" transform="translate(-180.105 -14.609)"/>
        <path id="prefix__Path_796" d="M3348.688 170.751l1.64-1.8-1.52-1.64c-1.931 1.136-1.95 2.154-.12 3.44z" class="prefix__cls-1" data-name="Path 796" transform="translate(-30.802 -5.169)"/>
        <path id="prefix__Path_797" d="M3497.537 173.7l1.637-1.782-1.53-1.643c-1.915 1.18-1.924 2.225-.107 3.425z" class="prefix__cls-1" data-name="Path 797" transform="translate(-132.623 -7.194)"/>
        <path id="prefix__Path_798" d="M3471.5 164.872l1.479-1.615-1.6-1.684c-1.735 1.427-1.728 2 .121 3.299z" class="prefix__cls-1" data-name="Path 798" transform="translate(-114.772 -1.243)"/>
        <path id="prefix__Path_799" d="M3739.763 171.981c1.77-1.529 1.747-2.234-.152-3.248a2.688 2.688 0 0 0-.316.316l-1.134 1.213z" class="prefix__cls-1" data-name="Path 799" transform="translate(-298.138 -6.14)"/>
        <path id="prefix__Path_800" d="M3784.59 205.483c-1.864 1.235-1.877 1.927-.12 3.273l1.58-1.7z" class="prefix__cls-1" data-name="Path 800" transform="translate(-328.927 -31.278)"/>
        <path id="prefix__Path_801" d="M3465.237 172.192l1.482-1.58-1.619-1.712c-1.744 1.479-1.737 2 .137 3.292z" class="prefix__cls-1" data-name="Path 801" transform="translate(-110.475 -6.257)"/>
        <path id="prefix__Path_802" d="M3790.5 215.961l1.753-1.558-1.491-1.58c-1.862 1.213-1.869 2.016-.262 3.138z" class="prefix__cls-1" data-name="Path 802" transform="translate(-333.138 -36.299)"/>
        <path id="prefix__Path_803" d="M3733.566 164.79l1.431-1.58-1.615-1.687c-1.728 1.513-1.703 2.205.184 3.267z" class="prefix__cls-1" data-name="Path 803" transform="translate(-294.004 -1.208)"/>
        <path id="prefix__Path_804" d="M3727.265 172.092l1.488-1.58c-.584-.61-1.112-1.16-1.634-1.709-1.753 1.526-1.731 2.111.146 3.289z" class="prefix__cls-1" data-name="Path 804" transform="translate(-289.703 -6.188)"/>
        <path id="prefix__Path_805" d="M3477.736 171.714c1.58-1.371 1.58-1.95-.316-3.131l-1.539 1.64z" class="prefix__cls-1" data-name="Path 805" transform="translate(-118.73 -6.038)"/>
        <path id="prefix__Path_806" d="M3796.941 206.013l-1.58 1.649c.24.256.509.515.736.806s.42.607.594.863c2.029-1.331 2.022-2.218.25-3.318z" class="prefix__cls-1" data-name="Path 806" transform="translate(-337.264 -31.641)"/>
        <path id="prefix__Path_807" d="M3645.658 180.453c-.225-2.145-1.372-3.018-3.548-2.973-1.817.041-2.844 1.074-3.034 3.109a8.215 8.215 0 0 0 0 1.495 2.9 2.9 0 0 0 2.676 2.882 8.587 8.587 0 0 0 1.507.066c0 1.128-1.046 1.63-1.927 1.8-1.529.316-1.918.8-1.763 2.446.67 0 1.352.028 2.029 0a4.4 4.4 0 0 0 4.161-3.871 28.789 28.789 0 0 0-.101-4.954zm-4.424.736c0-.739.373-1.188.948-1.188a.948.948 0 0 1 1.067.811v.033a.915.915 0 0 1 0 .186v1.51c-1.469.152-2.028-.126-2.028-1.352z" class="prefix__cls-1" data-name="Path 807" transform="translate(-230.338 -12.122)"/>
        <path id="prefix__Path_808" d="M3366.2 184.815h2.9a2.42 2.42 0 0 0 2.721-2.528v-2.057a.757.757 0 0 1 .287-.689 1.766 1.766 0 0 1 2.158.78 1.7 1.7 0 0 1-.36 1.965 1.745 1.745 0 0 1-1.1.256 3.389 3.389 0 0 1-.872 2.284c.379 0 .847.028 1.311 0a3.6 3.6 0 0 0 3.435-3.539c.114-2.31-.929-3.877-2.986-4.149a32.108 32.108 0 0 0-4.108-.035v4.297c0 .556-.24.948-.831.948h-2.556c-.025-.727-.069-1.45-.145-2.171-.224-2.145-1.371-3.018-3.549-2.973-1.817.041-2.844 1.074-3.03 3.109a7.878 7.878 0 0 0 0 1.495 2.9 2.9 0 0 0 2.676 2.882 8.584 8.584 0 0 0 1.507.066c0 1.128-1.046 1.63-1.927 1.8-1.529.316-1.918.8-1.76 2.446.667 0 1.349.028 2.025 0a4.4 4.4 0 0 0 4.161-3.871c.022-.117.026-.214.043-.316zm-4.541-3.915c0-.739.373-1.188.948-1.188a.948.948 0 0 1 1.068.811v.033a.915.915 0 0 1 0 .186v1.51c-1.476.161-2.035-.126-2.035-1.352z" class="prefix__cls-1" data-name="Path 808" transform="translate(-39.087 -11.834)"/>
    </g>
</svg>
