<svg xmlns="http://www.w3.org/2000/svg" width="950" height="293.409" viewBox="0 0 1151.769 293.409">
    <defs>
        <style>
            .prefix__cls-16,.prefix__cls-18,.prefix__cls-2{fill:#5c1449}.prefix__cls-4{opacity:0}.prefix__cls-5{fill:#fbac16}.prefix__cls-11,.prefix__cls-6,.prefix__cls-8{fill:#fff}.prefix__cls-7,.prefix__cls-9{fill:none}.prefix__cls-11,.prefix__cls-16,.prefix__cls-7,.prefix__cls-8,.prefix__cls-9{stroke:#5c1449;stroke-miterlimit:10;stroke-width:3px}.prefix__cls-11,.prefix__cls-7{stroke-linecap:round}.prefix__cls-10{fill:#39b54a}.prefix__cls-12{fill:#e24b00}.prefix__cls-18{fill-rule:evenodd}
        </style>
    </defs>
    <g id="prefix__Group_2292" data-name="Group 2292" transform="translate(-6.797 -510.63)">
        <g id="prefix__Group_824" data-name="Group 824" transform="translate(-2248.225 -130)">
            <ellipse id="prefix__Ellipse_71" cx="43.581" cy="123.929" data-name="Ellipse 71" rx="43.581" ry="123.929" transform="translate(2501.539 640.63)" style="fill:#6fc447"/>
            <path id="prefix__Path_972" d="M2542.275 932.027a1.885 1.885 0 0 1-1.885-1.885v-190.52a1.885 1.885 0 0 1 3.77 0v190.52a1.885 1.885 0 0 1-1.885 1.885z" class="prefix__cls-2" data-name="Path 972"/>
            <path id="prefix__Path_973" d="M2542.275 783.437a1.885 1.885 0 0 1-1.332-3.217L2556 765.164a1.884 1.884 0 0 1 2.664 2.665l-15.056 15.056a1.878 1.878 0 0 1-1.333.552z" class="prefix__cls-2" data-name="Path 973"/>
            <path id="prefix__Path_974" d="M2542.275 836.771a1.884 1.884 0 0 1-1.332-3.217L2556 818.5a1.884 1.884 0 0 1 2.664 2.665l-15.056 15.056a1.878 1.878 0 0 1-1.333.55z" class="prefix__cls-2" data-name="Path 974"/>
            <path id="prefix__Path_975" d="M2542.275 882.023a1.884 1.884 0 0 1-1.332-3.217L2556 863.75a1.884 1.884 0 0 1 2.664 2.665l-15.056 15.056a1.878 1.878 0 0 1-1.333.552z" class="prefix__cls-2" data-name="Path 975"/>
            <path id="prefix__Path_976" d="M2542.275 801.749a1.877 1.877 0 0 1-1.332-.552l-15.058-15.057a1.884 1.884 0 0 1 2.665-2.665l15.057 15.057a1.885 1.885 0 0 1-1.332 3.217z" class="prefix__cls-2" data-name="Path 976"/>
            <path id="prefix__Path_977" d="M2542.275 765.454a1.877 1.877 0 0 1-1.332-.552l-15.058-15.056a1.884 1.884 0 0 1 2.665-2.665l15.057 15.056a1.884 1.884 0 0 1-1.332 3.217z" class="prefix__cls-2" data-name="Path 977"/>
            <path id="prefix__Path_978" d="M2542.275 860.417a1.877 1.877 0 0 1-1.332-.552l-15.058-15.057a1.884 1.884 0 0 1 2.665-2.665l15.057 15.057a1.884 1.884 0 0 1-1.332 3.217z" class="prefix__cls-2" data-name="Path 978"/>
        </g>
        <path id="prefix__Path_979" d="M3056.785 878.781l-38.51-146.854c-.733-2.8-5.411-2.8-6.144 0l-11.854 45.2c-5.838-15.089-14.134-24.53-23.343-24.53-7.309 0-14.042 5.95-19.429 15.942-6.458-21.984-17.053-36.338-29.037-36.338-13.486 0-25.22 18.16-31.269 44.934L2879 707.747c-.822-3.134-6.063-3.134-6.885 0l-21.623 82.459-14.665-55.928c-.725-2.763-5.348-2.763-6.073 0l-13 49.578c-5.834-18.968-15.162-31.255-25.676-31.255-10.035 0-18.987 11.2-24.854 28.714l-12.334-47.037c-.725-2.763-5.348-2.763-6.073 0l-12.88 49.119c-5.219-33.978-18.722-58.187-34.563-58.187-14.607 0-27.229 20.585-33.2 50.434l-18.461-70.4c-.831-3.168-6.13-3.168-6.961 0l-43.63 166.382c-.5 1.9 1.2 3.7 3.481 3.7h40.083v54.234a3.592 3.592 0 0 0 7.094 0v-54.231h24.579c6.336 16.525 15.217 27.243 25.137 28.447v27.21a1.9 1.9 0 0 0 3.754 0v-27.21c8.368-1.017 16-8.807 21.982-21.135h23.525v47.308a3.134 3.134 0 0 0 6.188 0v-47.308h13.592c5.5 14.484 13.252 23.889 21.911 24.941V931.2a1.65 1.65 0 0 0 3.258 0v-23.618c8.659-1.053 16.405-10.458 21.91-24.941h15.084v47.308a3.134 3.134 0 0 0 6.188 0v-47.308h34.964a3.554 3.554 0 0 0 1.2-.218V929.6a3.553 3.553 0 0 0 7.016 0v-53.641h22.809c6.149 16.706 14.934 27.594 24.778 28.789v26.292a1.837 1.837 0 0 0 3.627 0v-26.292c8.743-1.063 16.653-9.771 22.622-23.411 5.53 15.227 13.483 25.162 22.4 26.245V931.2a1.65 1.65 0 0 0 3.258 0v-23.618c8.776-1.067 16.615-10.714 22.132-25.534h11.378v47.87a3.171 3.171 0 0 0 6.261 0v-47.87h35.378c2.017 0 3.513-1.591 3.074-3.267z" data-name="Path 979" transform="translate(-2248.225 -130)" style="fill:#cfd8e7;opacity:.5;mix-blend-mode:multiply;isolation:isolate"/>
        <g id="prefix__Group_825" class="prefix__cls-4" data-name="Group 825" transform="translate(-2248.225 -130)">
            <path id="prefix__Path_980" d="M3208.141 887.88a4.5 4.5 0 0 1-.894.768 2.838 2.838 0 0 0 .894-.768z" data-name="Path 980"/>
        </g>
        <path id="prefix__Path_981" d="M3208.141 887.88a4.5 4.5 0 0 1-.894.768 2.838 2.838 0 0 0 .894-.768z" class="prefix__cls-5" data-name="Path 981" transform="translate(-2248.225 -130)"/>
        <g id="prefix__Group_826" class="prefix__cls-4" data-name="Group 826" transform="translate(-2248.225 -130)">
            <path id="prefix__Path_982" d="M3276.069 906.219v-.037z" data-name="Path 982"/>
        </g>
        <path id="prefix__Path_983" d="M3276.069 906.219v-.037z" class="prefix__cls-5" data-name="Path 983" transform="translate(-2248.225 -130)"/>
        <g id="prefix__Group_827" class="prefix__cls-4" data-name="Group 827" transform="translate(-2248.225 -130)">
            <path id="prefix__Path_984" d="M3293.163 819.2v.044h-.013z" data-name="Path 984"/>
        </g>
        <path id="prefix__Path_985" d="M3293.163 819.2v.044h-.013z" class="prefix__cls-5" data-name="Path 985" transform="translate(-2248.225 -130)"/>
        <g id="prefix__Group_828" class="prefix__cls-4" data-name="Group 828" transform="translate(-2248.225 -130)"/>
        <g id="prefix__Group_829" class="prefix__cls-4" data-name="Group 829" transform="translate(-2248.225 -130)">
            <path id="prefix__Path_988" d="M3293.119 811.682a.951.951 0 0 0 .056.144l.088-.088z" data-name="Path 988"/>
        </g>
        <path id="prefix__Path_989" d="M3293.119 811.682a.951.951 0 0 0 .056.144l.088-.088z" class="prefix__cls-5" data-name="Path 989" transform="translate(-2248.225 -130)"/>
        <path id="prefix__Path_990" d="M3163.262 815.222v66.464a8.9 8.9 0 0 0 8.9 8.905h121.89a8.9 8.9 0 0 0 8.905-8.905v-66.464a8.9 8.9 0 0 0-8.905-8.9h-121.89a8.9 8.9 0 0 0-8.9 8.9zm25.514 9.837h11.441a8.9 8.9 0 0 1 8.905 8.9v.712a8.9 8.9 0 0 1-8.905 8.905h-11.441a8.9 8.9 0 0 1-8.9-8.905v-.712a8.9 8.9 0 0 1 8.9-8.9zm11.491 46.294h-11.441a8.9 8.9 0 0 1-8.905-8.905v-.712a8.9 8.9 0 0 1 8.905-8.905h11.441a8.9 8.9 0 0 1 8.905 8.905v.712a8.9 8.9 0 0 1-8.905 8.905zm25.357-46.294h11.434a8.9 8.9 0 0 1 8.9 8.9v.712a8.9 8.9 0 0 1-8.9 8.905h-11.434a8.9 8.9 0 0 1-8.905-8.905v-.712a8.9 8.9 0 0 1 8.905-8.9zm11.547 46.294h-11.422a8.9 8.9 0 0 1-8.9-8.905v-.712a8.9 8.9 0 0 1 8.9-8.905h11.423a8.9 8.9 0 0 1 8.9 8.923v.712a8.9 8.9 0 0 1-8.901 8.887zm25.205-46.294h11.473a8.9 8.9 0 0 1 8.9 8.9v.712a8.9 8.9 0 0 1-8.9 8.905h-11.471a8.9 8.9 0 0 1-8.9-8.874v-.712a8.9 8.9 0 0 1 8.898-8.931zm11.5 46.294h-11.436a8.9 8.9 0 0 1-8.905-8.905v-.712a8.9 8.9 0 0 1 8.905-8.905h11.435a8.9 8.9 0 0 1 8.9 8.905v.712a8.9 8.9 0 0 1-8.9 8.905z" class="prefix__cls-6" data-name="Path 990" transform="translate(-2248.225 -130)"/>
        <path id="prefix__Path_991" d="M2327.475 760.69v69.658a5.861 5.861 0 0 0 5.861 5.861h67.445a5.861 5.861 0 0 0 5.861-5.861V760.69a5.861 5.861 0 0 0-5.861-5.861h-67.445a5.861 5.861 0 0 0-5.861 5.861zm27.15 61.381h-7.887a5.861 5.861 0 0 1-5.861-5.861v-7.887a5.861 5.861 0 0 1 5.861-5.861h7.887a5.861 5.861 0 0 1 5.861 5.861v7.887a5.861 5.861 0 0 1-5.861 5.861zm22.263-48.237h7.881a5.861 5.861 0 0 1 5.861 5.861v7.887a5.862 5.862 0 0 1-5.861 5.862h-7.881a5.862 5.862 0 0 1-5.861-5.862V779.7a5.861 5.861 0 0 1 5.861-5.866zm8.214 48.237h-7.918a5.861 5.861 0 0 1-5.861-5.861v-7.887a5.861 5.861 0 0 1 5.861-5.861h7.918a5.861 5.861 0 0 1 5.861 5.861v7.887a5.861 5.861 0 0 1-5.863 5.861z" class="prefix__cls-6" data-name="Path 991" transform="translate(-2248.225 -130)"/>
        <path id="prefix__Path_992" d="M3341.041 932.539h-81.89l.113-32.942h-52.822l-.019 32.942h-82.9V888.8h217.52z" class="prefix__cls-6" data-name="Path 992" transform="translate(-2248.225 -130)"/>
        <rect id="prefix__Rectangle_203" width="46.69" height="18.823" class="prefix__cls-6" data-name="Rectangle 203" rx="3.707" transform="translate(94.752 606.005)"/>
        <path id="prefix__Line_131" d="M0 0L9.685 0" class="prefix__cls-7" data-name="Line 131" transform="translate(8.297 750.868)"/>
        <path id="prefix__Line_132" d="M0 0L9.685 0" class="prefix__cls-7" data-name="Line 132" transform="translate(23.151 750.868)"/>
        <path id="prefix__Line_133" d="M0 0L9.685 0" class="prefix__cls-7" data-name="Line 133" transform="translate(38.006 750.868)"/>
        <path id="prefix__Line_134" d="M0 0L9.691 0" class="prefix__cls-7" data-name="Line 134" transform="translate(52.213 750.868)"/>
        <path id="prefix__Line_135" d="M0 0L9.691 0" class="prefix__cls-7" data-name="Line 135" transform="translate(1103.457 801.912)"/>
        <path id="prefix__Line_136" d="M0 0L9.691 0" class="prefix__cls-7" data-name="Line 136" transform="translate(1118.312 801.912)"/>
        <path id="prefix__Line_137" d="M0 0L9.691 0" class="prefix__cls-7" data-name="Line 137" transform="translate(1133.167 801.912)"/>
        <path id="prefix__Line_138" d="M0 0L9.685 0" class="prefix__cls-7" data-name="Line 138" transform="translate(1147.38 801.912)"/>
        <path id="prefix__Path_993" d="M2321.111 845.07v36.446h27.772v-31.647h18.081v31.647h47.8v-37.463a6.46 6.46 0 0 0-6.46-6.46h-79.713a7.477 7.477 0 0 0-7.48 7.477z" class="prefix__cls-8" data-name="Path 993" transform="translate(-2248.225 -130)"/>
        <path id="prefix__Rectangle_204" d="M0 0H18.546V18.546H0z" class="prefix__cls-9" data-name="Rectangle 204" transform="translate(93.18 672.997)"/>
        <path id="prefix__Rectangle_205" d="M0 0H18.546V18.546H0z" class="prefix__cls-9" data-name="Rectangle 205" transform="translate(123.632 672.997)"/>
        <path id="prefix__Rectangle_206" d="M0 0H18.546V18.546H0z" class="prefix__cls-9" data-name="Rectangle 206" transform="translate(123.632 644.344)"/>
        <path id="prefix__Line_139" d="M0 55.268L0 0" class="prefix__cls-9" data-name="Line 139" transform="translate(79.25 652.324)"/>
        <path id="prefix__Path_994" d="M2327.475 762.765v-3.073a4.863 4.863 0 0 1 4.863-4.863h68.968a5.335 5.335 0 0 1 5.336 5.335v76.045" class="prefix__cls-9" data-name="Path 994" transform="translate(-2248.225 -130)"/>
        <path id="prefix__Path_995" d="M2342.978 771.627v-30.094a5.528 5.528 0 0 1 5.528-5.528h35.628a5.527 5.527 0 0 1 5.527 5.528v13.3" class="prefix__cls-9" data-name="Path 995" transform="translate(-2248.225 -130)"/>
        <path id="prefix__Line_140" d="M0 0L0 17.622" class="prefix__cls-7" data-name="Line 140" transform="translate(131.009 587.924)"/>
        <path id="prefix__Line_141" d="M0 0L23.345 0" class="prefix__cls-7" data-name="Line 141" transform="translate(119.016 592.629)"/>
        <path id="prefix__Line_142" d="M0 0L0 8.629" class="prefix__cls-7" data-name="Line 142" transform="translate(123.538 588.754)"/>
        <path id="prefix__Line_143" d="M0 0L0 8.629" class="prefix__cls-7" data-name="Line 143" transform="translate(137.103 588.754)"/>
        <path id="prefix__Path_996" d="M2415.868 881.516h78.06c5.207 1.119 9.144 4.893 9.993 9.565.956 5.214-2.408 9.277-2.943 9.906-2.132 2.515-4.773 3.471-7.327 4.4-4.465 1.667-5.358.629-8.509 2.182a13.077 13.077 0 0 0-6.717 7.088c-1.716 4.786.428 9.094.994 10.233a15.686 15.686 0 0 0 8.968 7.622l718.037-.371v-32.267h52.494v32.665h82.123v-15.591" class="prefix__cls-9" data-name="Path 996" transform="translate(-2248.225 -130)"/>
        <path id="prefix__Path_997" d="M3123.521 931.432v-34.741a7.887 7.887 0 0 1 7.887-7.886h201.747a7.886 7.886 0 0 1 7.886 7.886" class="prefix__cls-9" data-name="Path 997" transform="translate(-2248.225 -130)"/>
        <path id="prefix__Line_144" d="M0 0L0 12.459" class="prefix__cls-7" data-name="Line 144" transform="translate(883.736 788.974)"/>
        <path id="prefix__Path_998" d="M3163.237 887.836v-70.993a10.526 10.526 0 0 1 10.525-10.526h123.312a4.566 4.566 0 0 1 4.566 4.566" class="prefix__cls-9" data-name="Path 998" transform="translate(-2248.225 -130)"/>
        <path id="prefix__Line_145" d="M0 0L0 55.086" class="prefix__cls-9" data-name="Line 145" transform="translate(1053.415 702.75)"/>
        <path id="prefix__Line_146" d="M0 0L0 15.182" class="prefix__cls-9" data-name="Line 146" transform="translate(987.26 641.205)"/>
        <path id="prefix__Line_147" d="M0 0L0 11.628" class="prefix__cls-7" data-name="Line 147" transform="translate(1047.327 746.717)"/>
        <rect id="prefix__Rectangle_207" width="28.508" height="16.697" class="prefix__cls-9" data-name="Rectangle 207" rx="5.19" transform="translate(932.363 695.971)"/>
        <rect id="prefix__Rectangle_208" width="28.508" height="16.697" class="prefix__cls-9" data-name="Rectangle 208" rx="5.412" transform="translate(932.363 723.743)"/>
        <rect id="prefix__Rectangle_209" width="28.508" height="16.697" class="prefix__cls-9" data-name="Rectangle 209" rx="5.246" transform="translate(968.896 695.971)"/>
        <rect id="prefix__Rectangle_210" width="28.508" height="16.697" class="prefix__cls-9" data-name="Rectangle 210" rx="5.543" transform="translate(968.896 723.743)"/>
        <rect id="prefix__Rectangle_211" width="28.508" height="16.697" class="prefix__cls-9" data-name="Rectangle 211" rx="5.521" transform="translate(1005.625 695.971)"/>
        <rect id="prefix__Rectangle_212" width="28.508" height="16.697" class="prefix__cls-9" data-name="Rectangle 212" rx="5.212" transform="translate(1005.625 723.743)"/>
        <path id="prefix__Line_148" d="M0 0L44.476 0" class="prefix__cls-7" data-name="Line 148" transform="translate(164.134 765.635)"/>
        <g id="prefix__Group_831" data-name="Group 831" transform="translate(-2248.225 -130)">
            <circle id="prefix__Ellipse_72" cx="42.778" cy="42.778" r="42.778" class="prefix__cls-10" data-name="Ellipse 72" transform="translate(3046.404 809.022)"/>
            <g id="prefix__Group_830" data-name="Group 830">
                <path id="prefix__Line_149" d="M0 0L0 86.248" class="prefix__cls-7" data-name="Line 149" transform="translate(3089.648 844.568)"/>
                <path id="prefix__Path_999" d="M3111.327 850.9c-6.95-3.912-16.648.151-21.679 9.081" class="prefix__cls-7" data-name="Path 999"/>
                <path id="prefix__Path_1000" d="M3089.453 881.289c-1.7-7.8-11.182-12.339-21.194-10.156" class="prefix__cls-7" data-name="Path 1000"/>
            </g>
        </g>
        <g id="prefix__Group_832" data-name="Group 832" transform="translate(-2248.225 -130)">
            <circle id="prefix__Ellipse_73" cx="33.86" cy="33.86" r="33.86" class="prefix__cls-10" data-name="Ellipse 73" transform="translate(2426.295 784.992)"/>
            <path id="prefix__Line_150" d="M0 0L0 68.274" class="prefix__cls-7" data-name="Line 150" transform="translate(2460.527 814.148)"/>
            <path id="prefix__Path_1001" d="M2477.69 819.676c-5.51-3.1-13.207.113-17.163 7.182" class="prefix__cls-7" data-name="Path 1001"/>
            <path id="prefix__Path_1002" d="M2460.369 843.707c-1.345-6.17-8.848-9.767-16.779-8.038" class="prefix__cls-7" data-name="Path 1002"/>
        </g>
        <g id="prefix__Group_833" data-name="Group 833" transform="translate(-2248.225 -130)">
            <rect id="prefix__Rectangle_213" width="23.389" height="64.91" class="prefix__cls-11" data-name="Rectangle 213" rx="2.56" transform="translate(2935.566 837.687)"/>
            <path id="prefix__Line_151" d="M0 0L0 27.823" class="prefix__cls-7" data-name="Line 151" transform="translate(2944.15 902.597)"/>
            <path id="prefix__Line_152" d="M0 0L0 27.817" class="prefix__cls-7" data-name="Line 152" transform="translate(2949.546 902.786)"/>
            <path id="prefix__Line_153" d="M0 0L7.471 0" class="prefix__cls-7" data-name="Line 153" transform="translate(2962.835 886.044)"/>
            <path id="prefix__Line_154" d="M0 0L7.478 0" class="prefix__cls-7" data-name="Line 154" transform="translate(2923.893 886.044)"/>
            <path id="prefix__Line_155" d="M0 5.283L5.283 0" class="prefix__cls-7" data-name="Line 155" transform="translate(2962.835 871.359)"/>
            <path id="prefix__Line_156" d="M0 5.283L5.289 0" class="prefix__cls-7" data-name="Line 156" transform="translate(2926.516 894.673)"/>
            <path id="prefix__Line_157" d="M0 0L5.283 5.283" class="prefix__cls-7" data-name="Line 157" transform="translate(2962.835 894.673)"/>
            <path id="prefix__Line_158" d="M0 0L5.289 5.283" class="prefix__cls-7" data-name="Line 158" transform="translate(2926.516 871.78)"/>
            <circle id="prefix__Ellipse_74" cx="6.572" cy="6.572" r="6.572" class="prefix__cls-12" data-name="Ellipse 74" transform="translate(2940.691 844.335)"/>
            <circle id="prefix__Ellipse_75" cx="6.572" cy="6.572" r="6.572" data-name="Ellipse 75" transform="translate(2940.748 864.428)" style="fill:#e08a00"/>
            <circle id="prefix__Ellipse_76" cx="6.572" cy="6.572" r="6.572" data-name="Ellipse 76" transform="translate(2940.691 883.516)" style="fill:#55db1d"/>
        </g>
        <rect id="prefix__Rectangle_214" width="10.245" height="3.786" class="prefix__cls-12" data-name="Rectangle 214" rx=".874" transform="translate(74.269 635.533)"/>
        <rect id="prefix__Rectangle_215" width="10.245" height="3.786" class="prefix__cls-12" data-name="Rectangle 215" rx=".874" transform="translate(67.716 640.929)"/>
        <rect id="prefix__Rectangle_216" width="10.245" height="3.786" class="prefix__cls-12" data-name="Rectangle 216" rx=".874" transform="translate(80.539 640.929)"/>
        <rect id="prefix__Rectangle_217" width="10.245" height="3.786" class="prefix__cls-12" data-name="Rectangle 217" rx=".874" transform="translate(74.269 646.513)"/>
        <rect id="prefix__Rectangle_218" width="10.245" height="3.786" class="prefix__cls-12" data-name="Rectangle 218" rx=".874" transform="translate(887.056 764.245)"/>
        <rect id="prefix__Rectangle_219" width="10.245" height="3.786" class="prefix__cls-12" data-name="Rectangle 219" rx=".874" transform="translate(880.503 769.647)"/>
        <rect id="prefix__Rectangle_220" width="10.245" height="3.786" class="prefix__cls-12" data-name="Rectangle 220" rx=".874" transform="translate(893.333 769.647)"/>
        <rect id="prefix__Rectangle_221" width="10.245" height="3.786" class="prefix__cls-12" data-name="Rectangle 221" rx=".874" transform="translate(887.056 775.226)"/>
        <rect id="prefix__Rectangle_222" width="10.245" height="3.786" class="prefix__cls-12" data-name="Rectangle 222" rx=".874" transform="translate(1087.835 769.647)"/>
        <rect id="prefix__Rectangle_223" width="10.245" height="3.786" class="prefix__cls-12" data-name="Rectangle 223" rx=".874" transform="translate(1081.282 775.043)"/>
        <rect id="prefix__Rectangle_224" width="10.245" height="3.786" class="prefix__cls-12" data-name="Rectangle 224" rx=".874" transform="translate(1094.105 775.043)"/>
        <rect id="prefix__Rectangle_225" width="10.245" height="3.786" class="prefix__cls-12" data-name="Rectangle 225" rx=".874" transform="translate(1087.835 780.628)"/>
        <rect id="prefix__Rectangle_226" width="10.245" height="3.786" class="prefix__cls-12" data-name="Rectangle 226" rx=".874" transform="translate(1048.434 684.021)"/>
        <rect id="prefix__Rectangle_227" width="10.245" height="3.786" class="prefix__cls-12" data-name="Rectangle 227" rx=".874" transform="translate(1041.881 689.417)"/>
        <rect id="prefix__Rectangle_228" width="10.245" height="3.786" class="prefix__cls-12" data-name="Rectangle 228" rx=".874" transform="translate(1054.711 689.417)"/>
        <rect id="prefix__Rectangle_229" width="10.245" height="3.786" class="prefix__cls-12" data-name="Rectangle 229" rx=".874" transform="translate(1048.434 695.002)"/>
        <rect id="prefix__Rectangle_230" width="10.245" height="3.786" class="prefix__cls-12" data-name="Rectangle 230" rx=".874" transform="translate(146.424 711.335)"/>
        <rect id="prefix__Rectangle_231" width="10.245" height="3.786" class="prefix__cls-12" data-name="Rectangle 231" rx=".874" transform="translate(139.87 716.731)"/>
        <rect id="prefix__Rectangle_232" width="10.245" height="3.786" class="prefix__cls-12" data-name="Rectangle 232" rx=".874" transform="translate(152.694 716.731)"/>
        <rect id="prefix__Rectangle_233" width="10.245" height="3.786" class="prefix__cls-12" data-name="Rectangle 233" rx=".874" transform="translate(146.424 722.309)"/>
        <g id="prefix__Group_834" data-name="Group 834" transform="translate(-2248.225 -130)">
            <path id="prefix__Path_1003" d="M2836.108 886.874l-29.725-4.232a14.064 14.064 0 0 1-5.24-2.285 14.267 14.267 0 0 1-4.949-6.313 70.877 70.877 0 0 0-3.084-6.722 46.272 46.272 0 0 0-5.331-8.486c-4.6-5.126-12.2-5.929-16.712-5.929h-63.073a17.789 17.789 0 0 0-11.86 11.859 15.9 15.9 0 0 1-15.9 15.893h-9.245a16.135 16.135 0 0 0-16.135 16.135v13.444h195.591V903.4a16.71 16.71 0 0 0-14.337-16.526zm-96.793-6.587a2.776 2.776 0 0 1-2.771 2.776h-35.467a1.915 1.915 0 0 1-1.725-2.744l7.111-14.744a8.528 8.528 0 0 1 7.676-4.819h22.48a2.7 2.7 0 0 1 2.7 2.7zm44.97 2.776h-35.094a2.766 2.766 0 0 1-2.766-2.766v-16.851a2.7 2.7 0 0 1 2.7-2.7h21.725a9.731 9.731 0 0 1 8.771 5.51l6.625 13.725a2.156 2.156 0 0 1-1.935 3.078z" data-name="Path 1003" style="fill:#ffb92c;stroke:#5c1449;stroke-miterlimit:10;stroke-width:3px"/>
            <path id="prefix__Path_1004" d="M2726.769 841.314a17.232 17.232 0 0 1 24.357 0" class="prefix__cls-7" data-name="Path 1004"/>
            <path id="prefix__Path_1005" d="M2723 835.631a21.436 21.436 0 0 1 30.314-.017l.017.017" class="prefix__cls-7" data-name="Path 1005"/>
            <path id="prefix__Path_1006" d="M2716.566 832.472a30.515 30.515 0 0 1 43.153-.047l.048.047" class="prefix__cls-7" data-name="Path 1006"/>
            <path id="prefix__Path_1007" d="M2735.433 852.551V845.9a2 2 0 0 1 1.995-2.005h4.5a2.014 2.014 0 0 1 1.585.771l6.156 7.887z" class="prefix__cls-16" data-name="Path 1007"/>
            <path id="prefix__Rectangle_234" d="M0 0H28.771V16.431H0z" data-name="Rectangle 234" transform="translate(2752.932 904.869)" style="fill:#ffb92c"/>
            <path id="prefix__Shape_1_copy-2" d="M2752.409 903.6a13.2 13.2 0 0 0 4.89-.032 21.053 21.053 0 0 0 4.431-1.617s-1.412 1.358-1.774 1.617a.727.727 0 0 0-.217 1.006.736.736 0 0 0 .217.218c.539.479.636.954 1.332.819s4.852-3.267 4.852-3.267-1.079 1.919-1.332 2.448-.415.495.448 1.229 1.466 1.078 2.215 0a19.1 19.1 0 0 1 3.989-4.5c3.009-2.55 7.769-4.049 9.009-4.41l-.135.733a12.032 12.032 0 0 0-2.324.906c0 .248.108.884.108 1.137a10.446 10.446 0 0 1-2.658 6.927c-2.194 2.5-8.824 9.828-9.32 9.828s-7.111-7.315-9.3-9.811a9.4 9.4 0 0 1-1.52-2.335 22.2 22.2 0 0 1-2.933-.3v-.6zm11.024 2.652l1.914 1.92a12.228 12.228 0 0 0-1.347 1.2 3.776 3.776 0 0 0-.61.906l-1.779-1.774s-.275-.307.432-1c.593-.565 1.39-1.25 1.39-1.25zm2.637 2.631l1.913 1.919a12.613 12.613 0 0 0-1.347 1.192 3.719 3.719 0 0 0-.609.911l-1.779-1.774s-.275-.307.431-1c.593-.582 1.391-1.245 1.391-1.245zm2.744 1.3l-1.914-1.924a11.909 11.909 0 0 0 1.347-1.2 3.794 3.794 0 0 0 .61-.911l1.773 1.784s.281.307-.426 1.008c-.593.581-1.39 1.244-1.39 1.244z" class="prefix__cls-18" data-name="Shape 1 copy-2"/>
            <path id="prefix__Path_1008" d="M2765.956 888.427c-6.614 0-11.978 4.938-11.978 11.03a4.091 4.091 0 0 0 .092.722 9.428 9.428 0 0 0 5.234-1.132c3.294-1.957 2.631-4.679 3.1-4.9s2.216 2.043 2.216 2.043.253.172 0 1.223a16.8 16.8 0 0 1-.89 2.453s2.362-2.7 2.663-2.862 2.221 1.617 2.221 1.617l-1.331 2.043a39.025 39.025 0 0 1 5.321-4.086 44.98 44.98 0 0 1 4.1-1.995 12.1 12.1 0 0 0-10.748-6.156zm-.027 7.59l-1.741-1.8a.2.2 0 0 1-.043-.1l-.1-.1.108-.108a1.568 1.568 0 0 1 .48-.685c.6-.539 1.412-1.218 1.412-1.218l1.984 2.011z" class="prefix__cls-18" data-name="Path 1008"/>
            <path id="prefix__Path_1009" d="M2847.763 923.791h-191.085a5.7 5.7 0 0 1-5.7-5.693v-10.205h103.612l11.5 12.636 11.574-12.636h75.79V918.1a5.692 5.692 0 0 1-5.691 5.691z" class="prefix__cls-16" data-name="Path 1009"/>
            <circle id="prefix__Ellipse_77" cx="16.253" cy="16.253" r="16.253" class="prefix__cls-8" data-name="Ellipse 77" transform="translate(2796.124 899.51)"/>
            <circle id="prefix__Ellipse_78" cx="7.466" cy="7.466" r="7.466" class="prefix__cls-8" data-name="Ellipse 78" transform="translate(2804.911 908.298)"/>
            <circle id="prefix__Ellipse_79" cx="16.253" cy="16.253" r="16.253" class="prefix__cls-8" data-name="Ellipse 79" transform="translate(2671.438 899.591)"/>
            <circle id="prefix__Ellipse_80" cx="7.466" cy="7.466" r="7.466" class="prefix__cls-8" data-name="Ellipse 80" transform="translate(2680.226 908.378)"/>
        </g>
        <g id="prefix__Group_835" data-name="Group 835" transform="translate(-2248.225 -130)">
            <path id="prefix__Line_159" d="M0 0L0 86.248" class="prefix__cls-7" data-name="Line 159" transform="translate(3042.738 844.329)"/>
            <path id="prefix__Path_1010" d="M3024.82 888.774c-.553 7.961 7.27 14.98 17.5 15.722" class="prefix__cls-7" data-name="Path 1010"/>
            <path id="prefix__Path_1011" d="M3042.694 900.578c7.723 2.013 16.068-4.4 18.653-14.295" class="prefix__cls-7" data-name="Path 1011"/>
            <path id="prefix__Path_1012" d="M3019.99 834.707h43.829c3.643 0 6.6 3.925 6.6 8.767v39.772c0 4.841-2.954 8.766-6.6 8.766h-43.829c-3.643 0-6.6-3.925-6.6-8.766v-39.772c.003-4.842 2.957-8.767 6.6-8.767z" data-name="Path 1012" style="fill:#009245"/>
            <path id="prefix__Line_160" d="M0 0L0 18.339" class="prefix__cls-7" data-name="Line 160" transform="translate(3029.82 844.568)"/>
            <path id="prefix__Line_161" d="M0 0L0 18.345" class="prefix__cls-7" data-name="Line 161" transform="translate(3054.454 867.347)"/>
        </g>
        <g id="prefix__Group_836" data-name="Group 836" transform="translate(-2248.225 -130)">
            <path id="prefix__Path_1013" d="M3237.746 755.582v5.818a19.005 19.005 0 0 0-6.918-2.056c-8.214-.761-12.49 4.6-20.7 3.717a18.88 18.88 0 0 1-5.886-1.661v-5.817a19.92 19.92 0 0 0 6.855 1.887c8.415.7 12.716-4.642 20.754-3.667a18.024 18.024 0 0 1 5.895 1.779z" data-name="Path 1013" style="fill:#239b12"/>
            <path id="prefix__Path_1014" d="M3237.746 761.374v5.817a19.043 19.043 0 0 0-6.918-2.056c-8.214-.761-12.49 4.6-20.7 3.717a18.88 18.88 0 0 1-5.886-1.661v-5.817a23.181 23.181 0 0 0 4.012 1.3 22.156 22.156 0 0 0 2.874.459c1.61.138 3.346 0 10.843-2.428a25.315 25.315 0 0 1 4.5-1.213 18.865 18.865 0 0 1 4.748-.107 18.309 18.309 0 0 1 6.527 1.989z" class="prefix__cls-6" data-name="Path 1014"/>
            <path id="prefix__Path_1015" d="M3237.746 767.191v5.837a19.153 19.153 0 0 0-6.918-2.057c-8.214-.755-12.49 4.6-20.7 3.717a18.678 18.678 0 0 1-5.886-1.66v-5.811a23.242 23.242 0 0 0 4.012 1.3 21.017 21.017 0 0 0 2.874.459c1.61.139 3.346 0 10.843-2.427a25.778 25.778 0 0 1 4.5-1.214 18.911 18.911 0 0 1 4.748-.107 18.312 18.312 0 0 1 6.527 1.963z" data-name="Path 1015" style="fill:#d81e1e"/>
        </g>
        <path id="prefix__Path_1016" d="M3215.284 788.048h37.239a5.935 5.935 0 0 1 5.936 5.935v11.366h-51.3v-9.177a8.125 8.125 0 0 1 8.125-8.124z" class="prefix__cls-11" data-name="Path 1016" transform="translate(-2248.225 -130)"/>
    </g>
</svg>
