<svg height="586" viewBox="0 0 611 586" width="611" xmlns="http://www.w3.org/2000/svg" xmlns:xlink="http://www.w3.org/1999/xlink"><linearGradient id="a"><stop offset="0" stop-color="#179eff"/><stop offset="1" stop-color="#6bedf2"/></linearGradient><linearGradient id="b" x1="99.999844%" x2="-.000376%" xlink:href="#a" y1="49.999884%" y2="49.999884%"/><linearGradient id="c" x1="7.859198%" x2="87.577891%" xlink:href="#a" y1="70.1069%" y2="29.479501%"/><mask id="d" fill="#fff"><path d="m164.584962 28.5622936c-50.651539 23.7918165-94.8767312 60.8513119-122.9953851 107.0740184-28.2216923 46.325725-40.33142305 101.917679-40.64596151 157.71567-.31996154 55.803412 11.26373081 111.709844 38.85634611 159.298899 27.5871923 47.583633 71.1833075 86.752293 122.0463465 109.492238 50.863038 22.745367 108.884538 28.953578 163.852846 19.790367 54.973731-9.266229 106.780384-34.006899 145.853654-71.169413 38.959384-37.167935 65.179961-86.546256 78.976269-138.657275 7.060846-26.942009 10.846154-54.550926 10.916654-81.937541v-1.534431c-.059654-25.185276-3.270116-50.164514-9.967616-74.24912-14.116269-50.636229-43.704577-97.384871-83.298461-135.181761-39.593885-37.79689-89.084885-66.6474496-142.372039-75.80523858-12.934038-2.2176055-26.079577-3.2803211-39.301038-3.2803211-41.361808 0-83.461154 10.41027528-121.921615 28.44390828" fill="#fff" fill-rule="evenodd"/></mask><mask id="e" fill="#fff"><path d="m-.00000001 250.258468c.07659503-25.900976 3.2062087-52.164064 9.41199116-77.939374 19.62684955-81.5242449 70.14781415-157.9366412 133.32478785-169.69822608 63.236646-11.64786792 139.199823 41.47962268 207.600858 74.44671698 68.574628 33.0158301 129.657637 45.9849811 179.348611 90.2750381 49.582478 44.355037 87.843442 120.139283 79.646602 196.264679-8.191416 76.125396-62.894885 152.765226-134.648434 184.513924-71.693876 31.862416-160.497504 18.714566-240.388221-8.967396-79.961239-27.795679-151.0041419-70.130887-192.1890623-134.527188-27.8323332-43.520413-41.94341446-97.093853-42.10713271-152.41931v-1.948867" fill="#fff" fill-rule="evenodd"/></mask><g fill="none" fill-rule="evenodd"><path d="m164.584962 28.5622936c-50.651539 23.7918165-94.8767312 60.8513119-122.9953851 107.0740184-28.2216923 46.325725-40.33142305 101.917679-40.64596151 157.71567-.31996154 55.803412 11.26373081 111.709844 38.85634611 159.298899 27.5871923 47.583633 71.1833075 86.752293 122.0463465 109.492238 50.863038 22.745367 108.884538 28.953578 163.852846 19.790367 54.973731-9.266229 106.780384-34.006899 145.853654-71.169413 38.959384-37.167935 65.179961-86.546256 78.976269-138.657275 7.060846-26.942009 10.846154-54.550926 10.916654-81.937541v-1.534431c-.059654-25.185276-3.270116-50.164514-9.967616-74.24912-14.116269-50.636229-43.704577-97.384871-83.298461-135.181761-39.593885-37.79689-89.084885-66.6474496-142.372039-75.80523858-12.934038-2.2176055-26.079577-3.2803211-39.301038-3.2803211-41.361808 0-83.461154 10.41027528-121.921615 28.44390828" fill="url(#b)" mask="url(#d)" transform="translate(49)"/><path d="m350.337637 77.0675849c68.574628 33.0158301 129.657637 45.9849811 179.348611 90.2750381 49.582478 44.355037 87.843442 120.139283 79.646602 196.264679-8.191416 76.125396-62.894885 152.765226-134.648434 184.513924-71.693876 31.862416-160.497504 18.714566-240.388221-8.967396-79.961239-27.795679-151.0041419-70.130887-192.1890623-134.527188-41.17949553-64.390887-52.3219911-150.788717-32.69514155-232.307548 19.62684955-81.5242449 70.14781415-157.9366412 133.32478785-169.69822608 63.236646-11.64786792 139.199823 41.47962268 207.600858 74.44671698" fill="url(#c)" mask="url(#e)" transform="translate(0 9)"/></g></svg>