<svg xmlns="http://www.w3.org/2000/svg" width="56.876" height="52.587" viewBox="0 0 56.876 52.587">
    <defs>
        <style>
            .prefix__cls-1{fill:none;stroke:#5c1449;stroke-width:1.5px;stroke-miterlimit:10}
        </style>
    </defs>
    <g id="prefix__Group_776" data-name="Group 776" transform="translate(-11225.856 -3156.265)">
        <g id="prefix__Group_775" data-name="Group 775" transform="translate(10664.133 2710.005)">
            <g id="prefix__Group_772" data-name="Group 772">
                <g id="prefix__Group_771" data-name="Group 771" transform="translate(562.473 449.037)">
                    <path id="prefix__Path_919" d="M590.055 456.1h3.645v1.452a.964.964 0 0 0 .954.974h7.8a.964.964 0 0 0 .955-.975.989.989 0 0 0-.057-.33l-.783-2.27.793-2.222a.98.98 0 0 0-.574-1.247.936.936 0 0 0-.324-.057h-3.552v-1.413a.964.964 0 0 0-.954-.975h-7.906m-.032 10.048l-13.9 8.325a.978.978 0 0 0-.487.848v2.406h-12.206a.964.964 0 0 0-.954.974v25.485a.965.965 0 0 0 .954.975h53.466a.966.966 0 0 0 .955-.975v-25.475a.966.966 0 0 0-.955-.975h-12.211v-2.406a.978.978 0 0 0-.487-.848l-13.795-8.228zm3.469-2.986h4.469a.964.964 0 0 0 .954-.974l-.038-.039v-3.838m-23.239 18.129v28.933m22.4 0v-14.261a.965.965 0 0 0-.954-.975h-13.842a.965.965 0 0 0-.955.975v14.262m22.4 0v-27.852" class="prefix__cls-1" data-name="Path 919" transform="translate(-562.473 -449.037)"/>
                </g>
            </g>
            <g id="prefix__Group_774" data-name="Group 774">
                <g id="prefix__Group_773" data-name="Group 773">
                    <path id="prefix__Path_920" d="M590.473 465.449a3.044 3.044 0 1 0 3.043 3.036 3.051 3.051 0 0 0-3.043-3.036z" class="prefix__cls-1" data-name="Path 920"/>
                </g>
            </g>
            <path id="prefix__Line_106" d="M0 0L0 14.468" class="prefix__cls-1" data-name="Line 106" transform="translate(590.473 482.817)"/>
            <path id="prefix__Line_107" d="M0 0L0 11.946" data-name="Line 107" transform="translate(590.473 447.01)" style="stroke-linecap:round;stroke-linejoin:round;fill:none;stroke:#5c1449;stroke-width:1.5px"/>
            <rect id="prefix__Rectangle_176" width="4.759" height="2.173" class="prefix__cls-1" data-name="Rectangle 176" rx=".3" transform="translate(580.344 473.624)"/>
            <rect id="prefix__Rectangle_177" width="4.759" height="2.173" class="prefix__cls-1" data-name="Rectangle 177" rx=".3" transform="translate(588.093 473.624)"/>
            <rect id="prefix__Rectangle_178" width="4.759" height="2.173" class="prefix__cls-1" data-name="Rectangle 178" rx=".3" transform="translate(596.062 473.624)"/>
            <rect id="prefix__Rectangle_179" width="4.14" height="2.173" class="prefix__cls-1" data-name="Rectangle 179" rx=".3" transform="rotate(-90 543.199 -65.064)"/>
            <rect id="prefix__Rectangle_180" width="4.14" height="2.173" class="prefix__cls-1" data-name="Rectangle 180" rx=".3" transform="rotate(-90 545.602 -67.467)"/>
            <rect id="prefix__Rectangle_181" width="4.14" height="2.173" class="prefix__cls-1" data-name="Rectangle 181" rx=".3" transform="rotate(-90 546.609 -61.653)"/>
            <rect id="prefix__Rectangle_182" width="4.14" height="2.173" class="prefix__cls-1" data-name="Rectangle 182" rx=".3" transform="rotate(-90 549.013 -64.057)"/>
            <rect id="prefix__Rectangle_183" width="4.14" height="2.173" class="prefix__cls-1" data-name="Rectangle 183" rx=".3" transform="rotate(-90 550.02 -58.243)"/>
            <rect id="prefix__Rectangle_184" width="4.14" height="2.173" class="prefix__cls-1" data-name="Rectangle 184" rx=".3" transform="rotate(-90 552.423 -60.646)"/>
            <rect id="prefix__Rectangle_185" width="4.14" height="2.173" class="prefix__cls-1" data-name="Rectangle 185" rx=".3" transform="rotate(-90 522.001 -43.866)"/>
            <rect id="prefix__Rectangle_186" width="4.14" height="2.173" class="prefix__cls-1" data-name="Rectangle 186" rx=".3" transform="rotate(-90 524.404 -46.27)"/>
            <rect id="prefix__Rectangle_187" width="4.14" height="2.173" class="prefix__cls-1" data-name="Rectangle 187" rx=".3" transform="rotate(-90 525.412 -40.456)"/>
            <rect id="prefix__Rectangle_188" width="4.14" height="2.173" class="prefix__cls-1" data-name="Rectangle 188" rx=".3" transform="rotate(-90 527.815 -42.859)"/>
            <rect id="prefix__Rectangle_189" width="4.14" height="2.173" class="prefix__cls-1" data-name="Rectangle 189" rx=".3" transform="rotate(-90 528.822 -37.045)"/>
            <rect id="prefix__Rectangle_190" width="4.14" height="2.173" class="prefix__cls-1" data-name="Rectangle 190" rx=".3" transform="rotate(-90 531.226 -39.449)"/>
            <rect id="prefix__Rectangle_191" width="4.759" height="2.173" class="prefix__cls-1" data-name="Rectangle 191" rx=".3" transform="translate(580.344 478.042)"/>
            <rect id="prefix__Rectangle_192" width="4.759" height="2.173" class="prefix__cls-1" data-name="Rectangle 192" rx=".3" transform="translate(588.093 478.042)"/>
            <rect id="prefix__Rectangle_193" width="4.759" height="2.173" class="prefix__cls-1" data-name="Rectangle 193" rx=".3" transform="translate(596.062 478.042)"/>
        </g>
    </g>
</svg>