<svg xmlns="http://www.w3.org/2000/svg" width="83.065" height="104.618" viewBox="0 0 83.065 104.618">
    <defs>
        <style>
            .prefix__cls-2{fill:#dc2727}
        </style>
    </defs>
    <g id="prefix__Layer_2" data-name="Layer 2" transform="translate(.007 -.002)">
        <g id="prefix__Layer_1" data-name="Layer 1" transform="translate(-.007 .62)">
            <g id="prefix__Layer_1-2" data-name="Layer 1-2" transform="translate(12.016)">
                <path id="prefix__Path_524" d="M7.56 84.055V30.761a21.518 21.518 0 0 1 3-11.116 34.19 34.19 0 0 1 4.415-5.383 51.8 51.8 0 0 1 5.431-4.971L33.937.62l3.525 2.906L41.306.62a121.9 121.9 0 0 1 11.751 7.94 49.673 49.673 0 0 1 6.765 6.019A27.616 27.616 0 0 1 63.84 19.6a21.311 21.311 0 0 1 2.795 10.862v53.545z" data-name="Path 524" transform="translate(-7.56 -.62)" style="fill:none;stroke:#0e9146;stroke-miterlimit:10"/>
                <path id="prefix__Path_525" d="M58.1 65.435h-2.555v11.8H14.257l-.333-15.563 4.669 3.176c7.623 5.113 8.48 5.828 10.592 6.67 2.827 1.143 6.1 2.446 9.878 1.429a13.435 13.435 0 0 0 7.813-6.559l-16.754-9 .588-.651a1.239 1.239 0 0 1 1.588-.254l3.175 1.917a4.764 4.764 0 0 0 5.542-.413l.762-.6a2.08 2.08 0 0 0 .349-2.922 1.588 1.588 0 0 0-.556-.492l-13.9-8.353 2.4-1.731a7.416 7.416 0 0 1 8.29-.191L53.1 53.08A3.557 3.557 0 0 0 57.975 52a3.668 3.668 0 0 0 .508-1.953c0-5.606 0-10.148.143-13.562s-.254-6.781 0-10.148a9.528 9.528 0 0 0-.1-2.858 11.8 11.8 0 0 0-1.953-4.51 42.146 42.146 0 0 0-4.542-5.923A54.739 54.739 0 0 0 41.4 4.788C39 3.2 36.918 2.1 35.441 1.31c-1.191.588-2.906 1.477-4.907 2.62a51.5 51.5 0 0 0-10.084 6.94 39.7 39.7 0 0 0-5.8 6.829 16.325 16.325 0 0 0-2.223 3.986 17.468 17.468 0 0 0-.73 6c0 3.049-.159 6.114-.111 9.179v10.64l2.7-.159c.286-6.7.175-11.91 0-15.563a21.8 21.8 0 0 1 .985-9.528 22.518 22.518 0 0 1 3.51-5.558 33.571 33.571 0 0 1 7.13-6.781 47.165 47.165 0 0 1 9.528-5.431A66.554 66.554 0 0 1 42.6 8.758a50.992 50.992 0 0 1 8.718 7.384 15.642 15.642 0 0 1 3.986 6.241 12.022 12.022 0 0 1 .54 3.446c.127 3.7 0 12.387.159 23.82a1.223 1.223 0 0 1-1.203 1.223 1.191 1.191 0 0 1-.651-.191l-14.817-9.416a9.655 9.655 0 0 0-11.561.921l-4.319 3.827 15.991 9.655a.238.238 0 0 1 .079.349 2.128 2.128 0 0 1-2.446.127l-2.826-1.826a4.319 4.319 0 0 0-5.717.985l-2.1 2.684 16.357 9.258a9.528 9.528 0 0 1-4.955 3.033 11.942 11.942 0 0 1-7.317-1.178 25.234 25.234 0 0 1-5.618-3.268c-2.112-1.588-5.209-3.811-9.147-6.447a2.763 2.763 0 0 0-3.176 0 2.588 2.588 0 0 0-1.143 2.16l.191 18.564h46.604z" class="prefix__cls-2" data-name="Path 525" transform="translate(-5.284 -.214)"/>
            </g>
            <path id="prefix__Path_526" d="M6.261 66.2a2.446 2.446 0 0 1-.81 2.033A4.589 4.589 0 0 1 2.625 69a3.525 3.525 0 0 1-1.906-.43A1.588 1.588 0 0 1 0 67.046a5.018 5.018 0 0 1 .127-1.08 9.719 9.719 0 0 1 .349-1.1c.1-.238.254-.572.476-1.032l.254.111a9.275 9.275 0 0 0-.572 1.4A3.652 3.652 0 0 0 .5 66.3a1.318 1.318 0 0 0 .54 1.112 2.6 2.6 0 0 0 1.588.413 4.764 4.764 0 0 0 2.144-.413 1.588 1.588 0 0 0 1.128-1.43 3.51 3.51 0 0 0-.191-1.175 2.62 2.62 0 0 0-.461-.858l.508-1.27a3.176 3.176 0 0 1 .461 1.032 6.352 6.352 0 0 1 .127 1.382zm-2.287-4.76l-.476.889-1.016-.508.461-.921z" class="prefix__cls-2" data-name="Path 526" transform="translate(.007 34.826)"/>
            <path id="prefix__Path_527" d="M6.811 67.051h-.858a.794.794 0 0 1-.683-.381 2.271 2.271 0 0 1-.333-.873 10.544 10.544 0 0 1-.175-1.461 8.726 8.726 0 0 0-.079-1.429 10.672 10.672 0 0 0-.111-1.128 2.43 2.43 0 0 0-.175-.619 1.588 1.588 0 0 0-.4-.492l.762-1.207a8.4 8.4 0 0 1 .349 1.779c0 .429 0 1.445.127 3.049a3.462 3.462 0 0 0 .318 1.429.492.492 0 0 0 .381.254h.858z" class="prefix__cls-2" data-name="Path 527" transform="translate(2.364 33.98)"/>
            <path id="prefix__Path_528" d="M9.041 65.71H5.5v-1.08h3.081a2.843 2.843 0 0 0-.175-1.112 2.954 2.954 0 0 0-.524-.778l.492-1a3.4 3.4 0 0 1 .556.873A5.24 5.24 0 0 1 9.1 64.2zm-1.477 1.81l-.461.873-1.031-.523.492-.953zm1.413-.6l-.461.905L7.5 67.3l.476-.905z" class="prefix__cls-2" data-name="Path 528" transform="translate(3.246 35.32)"/>
            <path id="prefix__Path_529" d="M10.991 65.71H7.45v-1.08h3.081a2.89 2.89 0 0 0-.159-1.112 3.367 3.367 0 0 0-.588-.778l.476-1a3 3 0 0 1 .556.873 5.24 5.24 0 0 1 .175 1.588zm-.635 1.59l-.476.889-1.016-.508.461-.905z" class="prefix__cls-2" data-name="Path 529" transform="translate(4.392 35.32)"/>
            <path id="prefix__Path_530" d="M15.7 65.557a2.255 2.255 0 0 1-.588 1.413 5 5 0 0 1-1.255 1.112 2.414 2.414 0 0 1-1.191.445 4 4 0 0 1-.921-.175 9.349 9.349 0 0 1-.905-.286L10 67.78l.111-.254.842.159a3.97 3.97 0 0 0 .81.1 3.3 3.3 0 0 0 1.588-.508 5 5 0 0 0 1.334-1.177 1.858 1.858 0 0 0 .27-2.319 4.351 4.351 0 0 0-.651-.889l.46-.892a3.288 3.288 0 0 1 .746.937 2.636 2.636 0 0 1 .27 1.191z" class="prefix__cls-2" data-name="Path 530" transform="translate(5.892 35.473)"/>
            <path id="prefix__Path_531" d="M18.751 65.5h-.635a2.668 2.668 0 0 1-.937-.191 3.287 3.287 0 0 1-1.064-.588 2.223 2.223 0 0 1-.73.6 2.811 2.811 0 0 1-1.1.175h-.965v-1.08h.937a1.858 1.858 0 0 0 1.016-.286 2.541 2.541 0 0 0 .619-.619 4.033 4.033 0 0 1 .921-.953 2.62 2.62 0 0 1 .921-.461 10.91 10.91 0 0 1 .683 1.175 2.779 2.779 0 0 1 .333 1.143zm-.715-1.223a3.176 3.176 0 0 0-.238-.715 3.668 3.668 0 0 0-.381-.588 1.127 1.127 0 0 0-.508.27 3.746 3.746 0 0 0-.318.445 1.842 1.842 0 0 0 .635.429 2.62 2.62 0 0 0 .762.238z" class="prefix__cls-2" data-name="Path 531" transform="translate(7.844 35.532)"/>
            <path id="prefix__Path_532" d="M24.308 64.994a3.494 3.494 0 0 1-.667 2.049 2.461 2.461 0 0 1-1.953 1.128 3.907 3.907 0 0 1-.842-.1 8.055 8.055 0 0 1-.826-.238l-.81-.286.111-.206.73.159a2.81 2.81 0 0 0 .683.1 2.874 2.874 0 0 0 1.429-.381 4.335 4.335 0 0 0 1.048-.889 11.972 11.972 0 0 0 .762-.937 2.414 2.414 0 0 1-1.255-.27 1.112 1.112 0 0 1-.476-1 2.557 2.557 0 0 1 .3-1.191 1.016 1.016 0 0 1 .889-.619.794.794 0 0 1 .762.619 3.907 3.907 0 0 1 .191 1.366zm-.381-.667a2.176 2.176 0 0 0-.333-.826.556.556 0 0 0-.413-.206.461.461 0 0 0-.3.127.349.349 0 0 0-.127.286.508.508 0 0 0 .27.461 1.89 1.89 0 0 0 .902.158z" class="prefix__cls-2" data-name="Path 532" transform="translate(11.308 35.656)"/>
            <path id="prefix__Path_533" d="M28.332 67.051h-.873a.762.762 0 0 1-.667-.349 2.049 2.049 0 0 1-.349-.873c0-.4-.127-.889-.175-1.461s0-.953-.079-1.429a8.068 8.068 0 0 0-.1-1.128 3.335 3.335 0 0 0-.175-.619 1.588 1.588 0 0 0-.381-.524l.767-1.208a8.464 8.464 0 0 1 .333 1.779c0 .429.1 1.445.127 3.049a3.668 3.668 0 0 0 .333 1.429.492.492 0 0 0 .365.254h.873zm-3.271-6.527c0 .111 0 .191-.191.286l-.4.175-1.143.4c0-.191.206-.365.619-.508a1.239 1.239 0 0 1-.3-.191.365.365 0 0 1-.127-.254c0-.127.111-.3.333-.54a.985.985 0 0 1 .635-.381.349.349 0 0 1 .222 0 .286.286 0 0 1 .1.222.365.365 0 0 1 0 .175 2.206 2.206 0 0 1-.1.206.683.683 0 0 0-.429-.175.6.6 0 0 0-.27 0c-.079 0-.127 0-.127.127s.1.143.286.254a1.032 1.032 0 0 0 .492.159h.206z" class="prefix__cls-2" data-name="Path 533" transform="translate(13.73 33.98)"/>
            <path id="prefix__Path_534" d="M29.735 65.71H26.21v-1.08h3.081a2.843 2.843 0 0 0-.175-1.112 2.954 2.954 0 0 0-.588-.778l.492-1a3.907 3.907 0 0 1 .556.873 5.352 5.352 0 0 1 .159 1.588zm-1.461 1.81l-.476.873-1.016-.524.492-.889zm1.413-.6l-.461.905-1.015-.525.476-.905z" class="prefix__cls-2" data-name="Path 534" transform="translate(15.424 35.32)"/>
            <path id="prefix__Path_535" d="M31.225 67.215H28.16v-1.08h2.446l-.746-5.256-.318-.159a4.414 4.414 0 0 1 0-.81 6.353 6.353 0 0 1 .222-.73h.1a.6.6 0 0 0 .413.54l.619.238a5.068 5.068 0 0 1 0 .667 3.526 3.526 0 0 1-.111.524l-.3-.1.73 4.859z" class="prefix__cls-2" data-name="Path 535" transform="translate(16.57 33.815)"/>
            <path id="prefix__Path_536" d="M35.467 64.994a3.414 3.414 0 0 1-.762 2.049 2.414 2.414 0 0 1-1.953 1.128 4.018 4.018 0 0 1-.842-.1l-.826-.238-.794-.286.1-.206.73.159a2.747 2.747 0 0 0 2.112-.286 4.113 4.113 0 0 0 1.064-.889c.175-.191.429-.508.762-.937a2.334 2.334 0 0 1-1.255-.27 1.112 1.112 0 0 1-.476-1 2.366 2.366 0 0 1 .3-1.191 1 1 0 0 1 .873-.619.81.81 0 0 1 .778.619 3.907 3.907 0 0 1 .191 1.366zm-.4-.667a2.176 2.176 0 0 0-.333-.826.524.524 0 0 0-.4-.206.413.413 0 0 0-.3.127.3.3 0 0 0-.127.286.492.492 0 0 0 .27.461 1.779 1.779 0 0 0 .889.159z" class="prefix__cls-2" data-name="Path 536" transform="translate(17.823 35.656)"/>
            <path id="prefix__Path_537" d="M35.329 65.457a2.573 2.573 0 0 1-.191.969 6 6 0 0 1-.4.778h-.108v-.429a2.892 2.892 0 0 0 0-.318 13.632 13.632 0 0 0-.1-1.794c-.1-.762-.159-1.588-.254-2.414a11.661 11.661 0 0 0-.191-1.588c.079-.191.175-.381.286-.588l.3-.6a19.279 19.279 0 0 0 .254 1.937c.111.826.175 1.588.238 2.207s.166 1.459.166 1.84z" class="prefix__cls-2" data-name="Path 537" transform="translate(20.057 33.986)"/>
            <path id="prefix__Path_538" d="M43.943 66.2a2.446 2.446 0 0 1-.81 2.033 4.589 4.589 0 0 1-2.827.7 3.43 3.43 0 0 1-1.89-.429 1.588 1.588 0 0 1-.715-1.461 4.177 4.177 0 0 1 .127-1.08 7.289 7.289 0 0 1 .349-1.1c.1-.238.254-.572.476-1.032l.238.111a9.275 9.275 0 0 0-.572 1.4 3.653 3.653 0 0 0-.143.953 1.334 1.334 0 0 0 .556 1.159 2.6 2.6 0 0 0 1.588.413 4.764 4.764 0 0 0 2.064-.429 1.588 1.588 0 0 0 1.127-1.429 3.509 3.509 0 0 0-.191-1.175 2.588 2.588 0 0 0-.445-.858l.508-1.27a3.08 3.08 0 0 1 .445 1.032 5.51 5.51 0 0 1 .127 1.382zm-2.271-4.76l-.492.889-1-.508.461-.921z" class="prefix__cls-2" data-name="Path 538" transform="translate(22.178 34.826)"/>
            <path id="prefix__Path_539" d="M46.807 65.493h-.651a2.731 2.731 0 0 1-.937-.191 3.462 3.462 0 0 1-1.064-.588 2.08 2.08 0 0 1-.73.6 2.811 2.811 0 0 1-1.1.175h-.965v-1.08h1.016a1.8 1.8 0 0 0 1-.286 2.541 2.541 0 0 0 .588-.6 3.811 3.811 0 0 1 .937-.953 2.573 2.573 0 0 1 .905-.461 10.908 10.908 0 0 1 .683 1.175 2.843 2.843 0 0 1 .349 1.143zm-.715-1.223a4.271 4.271 0 0 0-.254-.715 3.667 3.667 0 0 0-.381-.588 1.064 1.064 0 0 0-.492.27 2.445 2.445 0 0 0-.333.445 2.223 2.223 0 0 0 .635.429 2.621 2.621 0 0 0 .762.238z" class="prefix__cls-2" data-name="Path 539" transform="translate(24.332 35.538)"/>
            <path id="prefix__Path_540" d="M51.64 65.587h-7.13v-1.08h5.066a10.2 10.2 0 0 0-1.08-.762 4.367 4.367 0 0 0-.985-.492 2.8 2.8 0 0 0-1.016-.175h-.635a1.826 1.826 0 0 1 .476-.73 1.445 1.445 0 0 1 1.064-.4 2.731 2.731 0 0 1 1.493.619c.286.206.746.588 1.4 1.175a3.176 3.176 0 0 0 1.016.73h.333zm-3.176 1.334l-.476.905-1-.524.445-.905z" class="prefix__cls-2" data-name="Path 540" transform="translate(26.185 35.443)"/>
            <path id="prefix__Path_541" d="M52.323 66.557H48.75v-1.08h3.081a2.573 2.573 0 0 0-.175-1.112 2.954 2.954 0 0 0-.588-.778l.492-1a3.4 3.4 0 0 1 .556.873 5.24 5.24 0 0 1 .175 1.588zm-.492-5.733l-.492.905-1-.524.4-.905z" class="prefix__cls-2" data-name="Path 541" transform="translate(28.678 34.474)"/>
            <path id="prefix__Path_542" d="M52.759 65.457a2.573 2.573 0 0 1-.191.969 6 6 0 0 1-.4.778h-.108v-.429a2.888 2.888 0 0 0 0-.318 13.633 13.633 0 0 0-.1-1.794c-.1-.762-.159-1.588-.254-2.414a14.86 14.86 0 0 0-.191-1.588c.079-.191.175-.381.286-.588s.206-.413.3-.6a19.282 19.282 0 0 0 .254 1.937c.111.826.175 1.588.238 2.207s.166 1.459.166 1.84z" class="prefix__cls-2" data-name="Path 542" transform="translate(30.307 33.986)"/>
        </g>
    </g>
</svg>
