<svg xmlns="http://www.w3.org/2000/svg" width="82.089" height="104" viewBox="0 0 82.089 104">
    <g id="prefix__Layer_2" data-name="Layer 2" transform="translate(.001)">
        <g id="prefix__Layer_1" data-name="Layer 1" transform="translate(-.001)">
            <g id="prefix__Layer_1-2-2" data-name="Layer 1-2-2" transform="translate(14.371 21.9)">
                <path id="prefix__Path_543" d="M14.58 22.22H35l6.487 6.08 6.475-6.081h20.422v21.142l-6.21 5.939 6.209 5.8v21H47.824l-6.337-6-6.278 6H14.58V54.922l6.3-5.756-6.3-6.13z" data-name="Path 543" transform="translate(-14.58 -22.22)" style="fill:#21376d"/>
                <path id="prefix__Rectangle_27" d="M0 0H41.296V41.799H0z" data-name="Rectangle 27" transform="translate(6.298 6.081)" style="fill:#6fccdc"/>
                <path id="prefix__Path_544" d="M36.142 35.279l5.509-5.529 5.519 5.529h8.555V43.5l5.519 5.667-5.519 5.667v8.151h-8.14l-5.8 5.805-5.647-5.736-8.486.069v-8.29l-5.722-5.558 5.933-5.775v-8.152z" data-name="Path 544" transform="translate(-14.686 -22.328)" style="fill:#f9e6a8"/>
            </g>
            <path id="prefix__Path_545" d="M27.165 15.267a6.16 6.16 0 0 1-.177.848c-.118.4-.266.857-.444 1.34a11 11 0 0 1-.483 1.1 1.784 1.784 0 0 1-.453.562 2.415 2.415 0 0 1-.8.355c-.3.089-.591.158-.887.217l-.414.059c-.059 0-.1 0-.108-.069a.217.217 0 0 1 0-.158 1.666 1.666 0 0 1 .483-.384c.256-.158.562-.355.9-.6a3.942 3.942 0 0 0 .729-.621A5.2 5.2 0 0 0 26 17.11c.177-.355.345-.719.493-1.084s.246-.611.315-.749.128-.2.207-.187a.168.168 0 0 1 .15.177z" data-name="Path 545" transform="translate(-.336 -.217)"/>
            <path id="prefix__Path_546" d="M30.2 17.321a7.047 7.047 0 0 1-.562 1.242 2.493 2.493 0 0 1-.414.493 2.444 2.444 0 0 1-.434.2c-.2.079-.5.177-.907.306a3.814 3.814 0 0 1-.71.2h-.063a3.154 3.154 0 0 1 .719-.621l.986-.69a2.444 2.444 0 0 0 .473-.483 2.208 2.208 0 0 0 .345-.719.424.424 0 0 0-.246 0 .443.443 0 0 1-.246.069.818.818 0 0 1-.532-.207.493.493 0 0 1-.187-.444 1.439 1.439 0 0 1 .1-.345 5.678 5.678 0 0 1 .278-.622 3.942 3.942 0 0 1 .453-.749.562.562 0 0 1 .414-.276.729.729 0 0 1 .6.306 1.133 1.133 0 0 1 .237.729 3.046 3.046 0 0 1 0 .424.66.66 0 0 1-.059.355c-.059.1 0 .217-.079.365a2.267 2.267 0 0 0-.166.467z" data-name="Path 546" transform="translate(-.39 -.211)"/>
            <path id="prefix__Path_547" d="M29.88 10.387a3.371 3.371 0 0 1 .365-.788c.246-.453.394-.68.453-.68a.986.986 0 0 1 .444.246 1.439 1.439 0 0 1 .394.483c.128-.217.256-.414.365-.611a1.3 1.3 0 0 1 .315-.414.877.877 0 0 1 .532.3.986.986 0 0 1 .306.6 1.6 1.6 0 0 1-.306.8c-.217.306-.375.463-.463.463s-.187-.079-.325-.217a2.868 2.868 0 0 0-.473-.444c-.315.65-.562.986-.749.986a2.139 2.139 0 0 1-.463-.315c-.275-.241-.395-.369-.395-.409zm3.834 4.691a1.616 1.616 0 0 1-.246.207 1.114 1.114 0 0 1-.355.138 2.316 2.316 0 0 1-.68.424l-.3.069h-.168l-.286.168h-.177l-.3.118-.463.227-.108.069a.5.5 0 0 1-.237.1 1.163 1.163 0 0 1-.177-.207.611.611 0 0 1-.1-.217.562.562 0 0 1 0-.256.68.68 0 0 1 .168-.3.651.651 0 0 1 .2-.059h.215a1.193 1.193 0 0 0 .375-.059.926.926 0 0 0 .256-.138.818.818 0 0 0 .158-.207.443.443 0 0 1 .1-.138.168.168 0 0 1 .118.059.168.168 0 0 0 .128.079.4.4 0 0 0 .434-.276c.089-.187.158-.286.187-.286s.315.177.414.118a1.537 1.537 0 0 0 .394-.473h.089l.128.069a.986.986 0 0 0 .227-.069.335.335 0 0 0 .059.187v.148a.66.66 0 0 1 0 .2.749.749 0 0 1-.1.3zm-3.095-6.84a4.347 4.347 0 0 1 .365-.769c.227-.453.365-.68.424-.68a.808.808 0 0 1 .542.3.986.986 0 0 1 .3.631 1.892 1.892 0 0 1-.276.788c-.187.335-.315.5-.4.5s-.168-.079-.345-.237l-.414-.335c-.156-.079-.196-.136-.196-.197z" data-name="Path 547" transform="translate(-.43 -.098)"/>
            <path id="prefix__Path_548" d="M33.719 14.252a.985.985 0 0 0 .207-.2 3.025 3.025 0 0 0 .2-.355 2.8 2.8 0 0 0 .187-1.133v-1.9a1.114 1.114 0 0 1 .079-.473l.641-1.567c0-.079 0-.089.089-.049v.769a9.648 9.648 0 0 0-.069 1.064v.986a7.383 7.383 0 0 1-.128 1.143 6.751 6.751 0 0 1-.315 1.262 2.73 2.73 0 0 1-.444.749c-.138.168-.286.325-.444.483a.66.66 0 0 1-.079-.365 1.183 1.183 0 0 1 .076-.414zm2.119-6.9a16.923 16.923 0 0 1 1.676-1.439l1.133-.986 1.143-.907c.572-.483 1.094-.986 1.557-1.36l1.518-1.429A16.026 16.026 0 0 0 44.068 0a.424.424 0 0 1 0 .158 4.149 4.149 0 0 1-.336.742 5.391 5.391 0 0 1-.483.749c-.148.207-.355.444-.6.739l-.562.572c-.158.158-.463.434-.907.838l-.6.522-.788.7-1.204.98c-.335.276-.473.375-.71.562l-.71.522-1.2.986-.5.394c-.168.128-.256.168-.286.128a6.208 6.208 0 0 1 .256-.71 3.46 3.46 0 0 1 .414-.581z" data-name="Path 548" transform="translate(-.484)"/>
            <path id="prefix__Path_549" d="M40.5 17.841a14.519 14.519 0 0 0 1.666-.069 11.9 11.9 0 0 0 1.725-.256 8.308 8.308 0 0 0 1.528-.473 4.3 4.3 0 0 0 .986-.522 1.971 1.971 0 0 0 .453-.532c.118-.2.2-.3.227-.3s.069.069 0 .2a3.262 3.262 0 0 1-.217.749 5.8 5.8 0 0 1-.5.986 2.484 2.484 0 0 1-.6.6 8.437 8.437 0 0 1-1.133.621 12.528 12.528 0 0 1-1.212.414 16.933 16.933 0 0 1-1.971.375 15.405 15.405 0 0 1-1.9.118 11.246 11.246 0 0 1-1.567-.089 2.336 2.336 0 0 1-1.321-.552 1.084 1.084 0 0 1-.355-.867 3.312 3.312 0 0 1 .059-.621 3.814 3.814 0 0 1 .148-.788 3.479 3.479 0 0 1 .128-.532.118.118 0 0 1 .128-.118c.059 0 .089.049.108.148a4.356 4.356 0 0 0 0 .483.917.917 0 0 0 .5.6 7.885 7.885 0 0 0 3.12.425zm-.739-3.676a3.331 3.331 0 0 1 .355-.788c.237-.444.384-.66.434-.66a.552.552 0 0 1 .424.207 3.371 3.371 0 0 1 .434.483l.384-.641c.138-.237.237-.355.286-.355a.828.828 0 0 1 .513.315 1.055 1.055 0 0 1 .315.591 1.508 1.508 0 0 1-.315.779c-.217.3-.365.444-.463.444s-.177-.079-.345-.246a4.218 4.218 0 0 0-.444-.394c-.315.631-.562.986-.749.986a.424.424 0 0 1-.2-.108l-.375-.315c-.187-.177-.256-.266-.256-.3z" data-name="Path 549" transform="translate(-.522 -.179)"/>
            <path id="prefix__Path_550" d="M50.944 15.267a6.161 6.161 0 0 1-.177.848c-.118.4-.266.857-.444 1.34a11.22 11.22 0 0 1-.513 1.1 1.971 1.971 0 0 1-.453.562 2.415 2.415 0 0 1-.8.355c-.3.089-.591.158-.887.217l-.414.059c-.059 0-.1 0-.108-.069a.237.237 0 0 1 0-.158 1.666 1.666 0 0 1 .483-.384c.256-.158.562-.355.9-.6a3.943 3.943 0 0 0 .729-.621 5.2 5.2 0 0 0 .493-.808c.177-.355.345-.719.493-1.084s.246-.611.315-.749.128-.2.207-.187a.191.191 0 0 1 .176.179z" data-name="Path 550" transform="translate(-.678 -.217)"/>
            <path id="prefix__Path_551" d="M52.926 14.85v1.1a8.154 8.154 0 0 1 0 .848 4.652 4.652 0 0 1-.286 1.321 4.474 4.474 0 0 1-.345.769 2.787 2.787 0 0 1-.2.276q-.118.089-.148.059v-.1l.108-.522a8.16 8.16 0 0 0 .128-.986v-1.326a9.994 9.994 0 0 1 0-1.331 2.414 2.414 0 0 1 .118-.552 5.36 5.36 0 0 1 .187-.562c.069-.187.148-.355.227-.522l.207-.444c.059-.128.1-.108.138-.089a.079.079 0 0 1 0 .089 1.793 1.793 0 0 0 0 .325V14.4a3.666 3.666 0 0 1-.138.453z" data-name="Path 551" transform="translate(-.748 -.184)"/>
            <path id="prefix__Path_552" d="M57.2 15.195a6.161 6.161 0 0 1-.177.848c-.118.4-.266.857-.444 1.34a11 11 0 0 1-.483 1.1 1.784 1.784 0 0 1-.453.562 2.415 2.415 0 0 1-.8.355c-.3.089-.591.158-.887.217l-.414.059c-.059 0-.1 0-.108-.069a.217.217 0 0 1 0-.158 1.666 1.666 0 0 1 .483-.384c.256-.158.562-.355.9-.6a3.942 3.942 0 0 0 .729-.621 5.2 5.2 0 0 0 .493-.808c.177-.355.345-.719.493-1.084s.246-.611.315-.749.128-.2.207-.187a.168.168 0 0 1 .146.179zm-.729-3.686a2.5 2.5 0 0 1 .325-.828c.217-.424.355-.631.414-.631a.719.719 0 0 1 .562.286 1.281 1.281 0 0 1 .384.572 1.8 1.8 0 0 1-.306.8c-.2.345-.345.522-.434.522l-.365-.256-.453-.306a.207.207 0 0 1-.128-.158z" data-name="Path 552" transform="translate(-.769 -.145)"/>
            <path id="prefix__Path_553" d="M59.955 17.322a5.855 5.855 0 0 1-.562 1.242 1.971 1.971 0 0 1-.4.493 2.532 2.532 0 0 1-.444.2c-.2.079-.493.177-.9.306a4.77 4.77 0 0 1-.71.2H56.9a3.154 3.154 0 0 1 .719-.621l.986-.69a2.691 2.691 0 0 0 .463-.493 2.454 2.454 0 0 0 .355-.719.414.414 0 0 0-.246 0 .542.542 0 0 1-.246.069.848.848 0 0 1-.542-.207.483.483 0 0 1-.177-.444 1.38 1.38 0 0 1 .1-.345 3.5 3.5 0 0 1 .276-.621 4.5 4.5 0 0 1 .414-.7.552.552 0 0 1 .424-.276.71.71 0 0 1 .591.306 1.133 1.133 0 0 1 .237.729v.424a.68.68 0 0 1-.059.355c-.059.1 0 .217-.089.365s-.072.305-.151.427z" data-name="Path 553" transform="translate(-.819 -.212)"/>
            <path id="prefix__Path_554" d="M3.765 93.868a5.164 5.164 0 0 1-.177.848c-.118.414-.266.857-.444 1.35a9.254 9.254 0 0 1-.483 1.094 1.843 1.843 0 0 1-.453.572 2.553 2.553 0 0 1-.8.355 8.5 8.5 0 0 1-.877.217 2.789 2.789 0 0 1-.424 0A.1.1 0 0 1 0 98.283a.177.177 0 0 1 .059-.148 1.646 1.646 0 0 1 .473-.394c.256-.158.562-.355.9-.591a3.361 3.361 0 0 0 .729-.631 4.593 4.593 0 0 0 .493-.808c.177-.355.345-.719.493-1.074s.256-.621.315-.749.138-.2.207-.187.096.068.096.167z" data-name="Path 554" transform="translate(.001 -1.35)"/>
            <path id="prefix__Path_555" d="M6.8 95.962a6.387 6.387 0 0 1-.557 1.238 1.823 1.823 0 0 1-.4.493 1.892 1.892 0 0 1-.443.207l-.9.306a3.854 3.854 0 0 1-.719.187H3.71a2.88 2.88 0 0 1 .719-.621 10.874 10.874 0 0 0 .986-.7 1.971 1.971 0 0 0 .552-.552 2.178 2.178 0 0 0 .355-.71.4.4 0 0 0-.256.049.532.532 0 0 1-.3.1.749.749 0 0 1-.532-.207.483.483 0 0 1-.187-.444 1.181 1.181 0 0 1 .108-.335 5.126 5.126 0 0 1 .266-.621 3.943 3.943 0 0 1 .424-.7.542.542 0 0 1 .424-.276.729.729 0 0 1 .591.3 1.153 1.153 0 0 1 .237.729 3.2 3.2 0 0 1 0 .434 2.8 2.8 0 0 1 0 .355 1.9 1.9 0 0 1-.089.365 3.942 3.942 0 0 1-.207.4z" data-name="Path 555" transform="translate(-.053 -1.345)"/>
            <path id="prefix__Path_556" d="M6.43 89a3.44 3.44 0 0 1 .365-.788c.246-.463.394-.69.453-.69a1.128 1.128 0 0 1 .444.256 1.518 1.518 0 0 1 .4.473c.118-.207.246-.4.355-.6a1.387 1.387 0 0 1 .315-.424.907.907 0 0 1 .532.3.986.986 0 0 1 .306.611 1.6 1.6 0 0 1-.306.8c-.217.306-.365.453-.463.453s-.177-.069-.315-.217a5.431 5.431 0 0 0-.483-.444q-.473.986-.739.986a1.892 1.892 0 0 1-.463-.325c-.273-.226-.401-.354-.401-.391zm3.834 4.682a1.616 1.616 0 0 1-.246.207.868.868 0 0 1-.345.138 2.4 2.4 0 0 1-.69.424l-.3.079H8.51l-.276.168h-.188a1.783 1.783 0 0 0-.3.108l-.463.227-.108.069a.631.631 0 0 1-.227.108 1.656 1.656 0 0 1-.173-.21.69.69 0 0 1-.108-.138.769.769 0 0 1 0-.256.917.917 0 0 1 .168-.3.513.513 0 0 1 .2-.059h.207a1.459 1.459 0 0 0 .384-.049.986.986 0 0 0 .246-.138.572.572 0 0 0 .168-.187.146.146 0 0 1 .1-.138h.118c.039 0 .089.089.128.089a.4.4 0 0 0 .444-.266c.1-.2.158-.286.187-.286s.325.177.414.118a1.7 1.7 0 0 0 .394-.473h.128l.128.069a.887.887 0 0 0 .227-.069.282.282 0 0 0 .059.2.887.887 0 0 1 0 .148.867.867 0 0 1 0 .2.483.483 0 0 1-.1.217zm-3.045-6.83a4.238 4.238 0 0 1 .325-.769q.325-.68.414-.68a.818.818 0 0 1 .542.3.986.986 0 0 1 .3.631 1.784 1.784 0 0 1-.276.788c-.177.335-.315.5-.4.5s-.168-.079-.345-.237a5.33 5.33 0 0 0-.414-.345.259.259 0 0 1-.147-.191z" data-name="Path 556" transform="translate(-.092 -1.23)"/>
            <path id="prefix__Path_557" d="M10.319 92.853a.877.877 0 0 0 .207-.2 2.533 2.533 0 0 0 .2-.345 2.681 2.681 0 0 0 .187-1.133v-1.91a1.064 1.064 0 0 1 .079-.414l.631-1.577c0-.069 0-.079.1 0a.572.572 0 0 1 0 .148v.621a6.811 6.811 0 0 0-.069 1.064v1.005a7.353 7.353 0 0 1-.138 1.143 5.579 5.579 0 0 1-.306 1.183 2.848 2.848 0 0 1-.444.759l-.444.473a.788.788 0 0 1-.079-.365 1.281 1.281 0 0 1 .079-.453zm2.129-6.9a16.914 16.914 0 0 1 1.665-1.453l1.133-.907 1.133-.926q.857-.71 1.567-1.36c.168-.158.67-.631 1.488-1.429s1.232-1.2 1.232-1.222a.434.434 0 0 1 0 .148 4.228 4.228 0 0 1-.335.749 7.068 7.068 0 0 1-.493.749c-.148.2-.345.444-.6.729s-.375.4-.522.552-.453.444-.907.848l-.6.513c-.237.217-.522.453-.838.719s-.867.719-1.2.986l-.71.552-.7.532-1.232.986-.5.4c-.168.128-.256.168-.276.128a5.125 5.125 0 0 1 .315-.71 2.779 2.779 0 0 1 .384-.65z" data-name="Path 557" transform="translate(-.147 -1.133)"/>
            <path id="prefix__Path_558" d="M21.277 91.3a2.839 2.839 0 0 1-.108.414c-.049.138-.138.325-.246.572a2.828 2.828 0 0 1-.207.414c-.089.148-.168.217-.237.217a.837.837 0 0 1-.138-.1.207.207 0 0 0-.118 0 1.409 1.409 0 0 0-.572.177 3.439 3.439 0 0 0-.779.572 4.278 4.278 0 0 0-.66.729 1.035 1.035 0 0 0-.237.463.375.375 0 0 0 .118.3 1.971 1.971 0 0 0 .375.177 1.429 1.429 0 0 1 .355.177.9.9 0 0 1 .286.779 6.515 6.515 0 0 1-.306 1.843 6.377 6.377 0 0 1-.8 1.794 6.258 6.258 0 0 1-.591.71 3.814 3.814 0 0 1-.719.611 3.1 3.1 0 0 1-1.715.493 2.05 2.05 0 0 1-1.676-.749 2.1 2.1 0 0 1-.355-.788 3.292 3.292 0 0 1-.108-.788 7.2 7.2 0 0 1 .069-.926 6.179 6.179 0 0 1 .217-.917 12.044 12.044 0 0 1 .552-1.439c.207-.463.384-.828.522-1.114l.4-.867.148-.286c.049-.089.1-.138.138-.138s.089 0 .089.138a.572.572 0 0 1-.01.2c-.059.168-.118.306-.168.424s-.108.276-.207.483l-.3.7-.266.611a6.574 6.574 0 0 0-.513 2.03 1.36 1.36 0 0 0 .463 1.084 2.178 2.178 0 0 0 1.427.4 3.262 3.262 0 0 0 1.478-.355 3.134 3.134 0 0 0 .877-.65 3.775 3.775 0 0 0 .542-.71 1.232 1.232 0 0 0 .187-.6c0-.118-.079-.2-.246-.246l-.315-.108a1.074 1.074 0 0 1-.246-.089 1.055 1.055 0 0 1-.4-.325.858.858 0 0 1-.138-.532 3.558 3.558 0 0 1 .325-1.3 6.81 6.81 0 0 1 .986-1.547 9.118 9.118 0 0 1 .9-.986c.148-.138.335-.286.552-.453a7.047 7.047 0 0 1 .66-.444 1.912 1.912 0 0 1 .621-.256.118.118 0 0 1 .128.079.256.256 0 0 1-.034.122z" data-name="Path 558" transform="translate(-.184 -1.312)"/>
            <path id="prefix__Path_559" d="M25.086 95.229l.207-.079a1.331 1.331 0 0 1 .1.552 1.7 1.7 0 0 1-.1.542l-.522.2-.582.217a2.957 2.957 0 0 0-1.045.907c-.384.473-.729.887-.986 1.242a8.476 8.476 0 0 1-1.971 1.843l-.562.306-.67.325c-.128.059-.227.079-.286 0s0-.1 0-.158a.729.729 0 0 0 .118-.089l.207-.118.729-.522a10.408 10.408 0 0 0 .848-.71 5.559 5.559 0 0 0 .562-.582 4.337 4.337 0 0 0 .483-.542c.148-.168.444-.591.907-1.252q.384-.542.621-.828a5.618 5.618 0 0 1 .65-.641 4.238 4.238 0 0 1 .641-.365 6.906 6.906 0 0 1 .65-.246z" data-name="Path 559" transform="translate(-.268 -1.371)"/>
            <path id="prefix__Path_560" d="M26.758 96.3l-.424.926q-.187.394-.325.325v-.276l.069-.335q0-.177-.237-.325a1.331 1.331 0 0 0-.69-.138 2.06 2.06 0 0 0-.7.1l-1.232-.118a3.6 3.6 0 0 1 2.651-1.6 1.883 1.883 0 0 1 .641.089 1.133 1.133 0 0 1 .365.246h.049l.108.168a.542.542 0 0 1 0 .217.478.478 0 0 1-.079.207z" data-name="Path 560" transform="translate(-.334 -1.366)"/>
            <path id="prefix__Path_561" d="M27.042 95.734a.828.828 0 0 1-.286.079.414.414 0 0 1-.256-.079 8.25 8.25 0 0 1 .986-1.508c.394-.463.69-.66.9-.591s.444.128.552 0a1.9 1.9 0 0 0 .266-.6c0-.049 0-.079.079-.079a.118.118 0 0 1 .1 0c.2.217.365.089.513-.365.059-.148.108-.217.168-.217s.049 0 .049.079a.325.325 0 0 1 0 .138 2.158 2.158 0 0 1-.286.857 1.084 1.084 0 0 1-.493.532.808.808 0 0 0-.394.217l-.227.246a.434.434 0 0 1-.217.118 1.1 1.1 0 0 1-.306 0 .493.493 0 0 0-.335.089 2.464 2.464 0 0 0-.453.483 2.553 2.553 0 0 0-.36.601zm.483-6.377a3.44 3.44 0 0 1 .365-.788c.246-.463.4-.69.453-.69a.877.877 0 0 1 .444.256 1.518 1.518 0 0 1 .4.473l.365-.641c.168-.286.266-.424.306-.424a.907.907 0 0 1 .532.3.986.986 0 0 1 .315.611 1.6 1.6 0 0 1-.315.8c-.217.306-.365.453-.463.453s-.177-.069-.315-.217a5.431 5.431 0 0 0-.483-.444q-.473.986-.739.986a1.892 1.892 0 0 1-.463-.325c-.266-.177-.4-.306-.4-.345zm.788-2.149a4.238 4.238 0 0 1 .325-.769c.217-.453.355-.68.424-.68a.818.818 0 0 1 .532.3.986.986 0 0 1 .3.631 1.784 1.784 0 0 1-.276.788c-.177.335-.315.5-.4.5s-.168-.079-.345-.237a5.335 5.335 0 0 0-.414-.345c-.089-.069-.138-.128-.138-.187z" data-name="Path 561" transform="translate(-.381 -1.235)"/>
            <path id="prefix__Path_562" d="M39.357 91.3a2.858 2.858 0 0 1-.118.414 5.591 5.591 0 0 1-.237.572 2.827 2.827 0 0 1-.207.414c-.089.148-.168.217-.237.217a.838.838 0 0 1-.138-.1.237.237 0 0 0-.118 0 1.409 1.409 0 0 0-.572.177 3.44 3.44 0 0 0-.779.572 4.277 4.277 0 0 0-.66.729 1.035 1.035 0 0 0-.237.463.375.375 0 0 0 .118.3 1.97 1.97 0 0 0 .375.177 1.429 1.429 0 0 1 .355.177.9.9 0 0 1 .286.779 6.515 6.515 0 0 1-.276 1.794 6.377 6.377 0 0 1-.8 1.794 6.257 6.257 0 0 1-.591.71 3.814 3.814 0 0 1-.719.611 3.1 3.1 0 0 1-1.715.493 2.05 2.05 0 0 1-1.676-.749 2.287 2.287 0 0 1-.365-.788 3.834 3.834 0 0 1-.1-.788 7.194 7.194 0 0 1 .069-.926 6.179 6.179 0 0 1 .217-.917 12.043 12.043 0 0 1 .552-1.439c.207-.463.384-.828.513-1.114l.417-.872a1.567 1.567 0 0 1 .148-.286.155.155 0 0 1 .138-.14c.039 0 .089 0 .089.138a.572.572 0 0 1 0 .207l-.168.424a2.094 2.094 0 0 1-.207.483l-.3.7-.266.611a6.3 6.3 0 0 0-.513 2.03 1.36 1.36 0 0 0 .513 1.124 2.178 2.178 0 0 0 1.419.414 3.262 3.262 0 0 0 1.478-.355 3.134 3.134 0 0 0 .877-.651 4.257 4.257 0 0 0 .542-.71 1.232 1.232 0 0 0 .187-.6c0-.118-.079-.2-.246-.246l-.355-.108a1.074 1.074 0 0 1-.246-.089 1.055 1.055 0 0 1-.4-.325.857.857 0 0 1-.138-.532 3.558 3.558 0 0 1 .325-1.3 6.81 6.81 0 0 1 .986-1.547 9.117 9.117 0 0 1 .9-.986c.148-.138.335-.286.552-.453a5.915 5.915 0 0 1 .66-.444 1.912 1.912 0 0 1 .621-.256.128.128 0 0 1 .128.079.256.256 0 0 1-.079.118z" data-name="Path 562" transform="translate(-.445 -1.312)"/>
            <path id="prefix__Path_563" d="M40.619 95.05a1.628 1.628 0 0 1-.069.591 3.134 3.134 0 0 1-.138.453.65.65 0 0 1-.227.276.5.5 0 0 1-.325.069c0-.453.059-1.084.148-1.882s.217-1.705.4-2.681c.089-.276.276-.779.562-1.5q0-.1.089-.089a.108.108 0 0 1 .049.089c0 .355-.089.986-.217 2.02s-.207 1.676-.237 2.04-.035.575-.035.614z" data-name="Path 563" transform="translate(-.574 -1.301)"/>
            <path id="prefix__Path_564" d="M44.63 96.894a12.813 12.813 0 0 0-.542 1.37c-.1.315-.187.473-.237.473s-.1 0-.1-.118a1 1 0 0 1 .079-.453l.089-.66a.986.986 0 0 0-.168-.631.591.591 0 0 0-.473-.2c-.227 0-.463.177-.71.522a6.051 6.051 0 0 1-.552.729 1.419 1.419 0 0 1-.424.335 1.232 1.232 0 0 1-.552.118.986.986 0 0 1-.848-.493 2.533 2.533 0 0 1-.325-1.38 2.025 2.025 0 0 1 .133-.568 2.958 2.958 0 0 1 .168-.453.778.778 0 0 1 .207-.276.306.306 0 0 1 .246-.089 2.05 2.05 0 0 0 .246 1.084.907.907 0 0 0 .838.4 1.232 1.232 0 0 0 .67-.158 2.9 2.9 0 0 0 .424-.384c.118-.118.237-.246.355-.355a.8.8 0 0 1 .513-.2.808.808 0 0 1 .621.3 1.508 1.508 0 0 1 .227.335c0 .069.059.138.089.2a.818.818 0 0 1 0 .148.434.434 0 0 1 0 .2 1.232 1.232 0 0 1 .03.207z" data-name="Path 564" transform="translate(-.574 -1.37)"/>
            <path id="prefix__Path_565" d="M43.335 103.605c.237-.444.384-.66.434-.66a.567.567 0 0 1 .434.207 3.35 3.35 0 0 1 .424.483c.118-.187.246-.4.384-.641s.237-.355.286-.355a.759.759 0 0 1 .513.315.986.986 0 0 1 .315.591 1.459 1.459 0 0 1-.315.779c-.207.3-.365.444-.463.444s-.177-.089-.345-.246a3.558 3.558 0 0 0-.444-.394c-.306.631-.562.986-.739.986a.375.375 0 0 1-.207-.118l-.375-.306c-.168-.138-.256-.227-.256-.266a3.479 3.479 0 0 1 .354-.819zm2.957-8.269a1.311 1.311 0 0 0 0-.315 2.149 2.149 0 0 0 0-.266 1.734 1.734 0 0 0-.089-.375 1.064 1.064 0 0 0-.581.276 3.43 3.43 0 0 0-.71.907 8.634 8.634 0 0 0-.65 1.321.256.256 0 0 0 .217.079l.217-.079c.079-.168.168-.325.246-.463s.177-.286.276-.444a1.271 1.271 0 0 1 .375-.384.857.857 0 0 1 .611-.079.375.375 0 0 0 .049-.177z" data-name="Path 565" transform="translate(-.618 -1.36)"/>
            <path id="prefix__Path_566" d="M46.229 94.284c.306.138.513.138.611 0s.128-.177.335-.5c.059-.089.1-.138.128-.138a.049.049 0 0 1 .059.059 1.291 1.291 0 0 1 0 .227 2.707 2.707 0 0 1-.158.532 2.07 2.07 0 0 1-.365.68.572.572 0 0 1-.581.256 1.38 1.38 0 0 1-.108-.581 1.892 1.892 0 0 1 .079-.532zm.848-5.1a2.483 2.483 0 0 1 .325-.818c.217-.434.355-.641.414-.641a.723.723 0 0 1 .562.286 1.291 1.291 0 0 1 .384.582 1.823 1.823 0 0 1-.306.8c-.2.345-.345.513-.434.513a2.623 2.623 0 0 1-.365-.227l-.453-.306a.227.227 0 0 1-.128-.187z" data-name="Path 566" transform="translate(-.664 -1.264)"/>
            <path id="prefix__Path_567" d="M49.915 93.46v1.971a5.559 5.559 0 0 1-.286 1.321 5.343 5.343 0 0 1-.345.769 2.189 2.189 0 0 1-.207.276q-.089.089-.148.059a.1.1 0 0 1 0-.108 2.147 2.147 0 0 1 .1-.522 7.037 7.037 0 0 0 .138-.986v-1.35a9.718 9.718 0 0 1 0-1.331 2.957 2.957 0 0 1 .118-.552 4.692 4.692 0 0 1 .187-.562c.069-.187.138-.365.217-.532l.217-.434c0-.079.1-.108.138-.1s0 0 0 .1a2.335 2.335 0 0 0 0 .325V93a.8.8 0 0 0-.129.46z" data-name="Path 567" transform="translate(-.704 -1.316)"/>
            <path id="prefix__Path_568" d="M55.06 93.419l.187-.059h.187a1.133 1.133 0 0 1 .217.453 1.5 1.5 0 0 1 0 .463 2.13 2.13 0 0 1-.1.434 2.385 2.385 0 0 1-.158.384h-.306a1.774 1.774 0 0 0-.522.079 4.1 4.1 0 0 0-.69.276 3.528 3.528 0 0 0-1.074.9 16.63 16.63 0 0 0-.986 1.39 11.009 11.009 0 0 1-1.232 1.459 10.751 10.751 0 0 1-.986.907c-.276.2-.522.355-.759.493a6.466 6.466 0 0 1-.848.3h-.09l-.138.049a.266.266 0 0 1-.246 0 .244.244 0 0 1 .079-.158 4.651 4.651 0 0 1 .493-.424c.276-.187.591-.414.986-.69a12.43 12.43 0 0 0 1.074-.986 10.4 10.4 0 0 0 1.045-1.37l.434-.65c.522-.749.848-1.212.986-1.39a6.9 6.9 0 0 1 1.291-1.212 5.322 5.322 0 0 1 1.156-.648z" data-name="Path 568" transform="translate(-.684 -1.345)"/>
            <path id="prefix__Path_569" d="M51.675 103.4c.237-.444.384-.67.434-.67a.555.555 0 0 1 .434.217 2.9 2.9 0 0 1 .424.483c.118-.2.246-.4.384-.651s.237-.355.286-.355a.808.808 0 0 1 .513.315.986.986 0 0 1 .315.6 1.409 1.409 0 0 1-.315.779c-.207.3-.365.444-.463.444s-.177-.089-.345-.256a3.371 3.371 0 0 0-.444-.384c-.306.621-.562.986-.739.986a.345.345 0 0 1-.207-.108c-.079-.069-.2-.177-.375-.315s-.256-.217-.256-.256a3.282 3.282 0 0 1 .354-.829zm4.632-8.427a1.518 1.518 0 0 0 .483-.375c.187-.207.365-.414.532-.631a.779.779 0 0 0 .138-.434.493.493 0 0 0-.138-.365c-.069.079-.306.108-.7.079a3.943 3.943 0 0 0-1.133.069.857.857 0 0 0-.217.444 2.208 2.208 0 0 0 0 .572 1.9 1.9 0 0 0 .089.5.2.2 0 0 0 .168.217 1.4 1.4 0 0 0 .237 0 1.232 1.232 0 0 0 .306 0 1.34 1.34 0 0 0 .237-.079z" data-name="Path 569" transform="translate(-.739 -1.342)"/>
            <path id="prefix__Path_570" d="M60.6 91.6a1.311 1.311 0 0 1-.217.217l-.089.069-.089.069a.591.591 0 0 1-.365.177 1.527 1.527 0 0 0-.177.148l-.158.148-.148.148a.4.4 0 0 1-.187.138.838.838 0 0 1-.237 0l-.168.138-.168.158-.138.148a.877.877 0 0 1-.345.187 2.957 2.957 0 0 0-.71.562.6.6 0 0 1-.128-.335.72.72 0 0 1 .128-.463l.187-.138a5.34 5.34 0 0 0 .375-.453 1.567 1.567 0 0 1 .355-.335h.158a.207.207 0 0 0 .168 0 .788.788 0 0 0 .4-.345c.049-.079.108-.187.207-.325h.217a.552.552 0 0 0 .217-.059c.069 0 .148-.108.227-.276s.118-.237.148-.237h.306a.582.582 0 0 0 .227-.079.434.434 0 0 1 .059.158.7.7 0 0 1 0 .2 1.39 1.39 0 0 1 0 .177.572.572 0 0 1-.055.203z" data-name="Path 570" transform="translate(-.824 -1.309)"/>
            <path id="prefix__Path_571" d="M60.649 90.672a.986.986 0 0 0 .207-.207 2.533 2.533 0 0 0 .2-.345 2.839 2.839 0 0 0 .187-1.133V87.8a6.493 6.493 0 0 1 0-.719 1.1 1.1 0 0 1 .079-.473l.641-1.577c0-.069.049-.079.089 0a.483.483 0 0 1 0 .148v.621q-.06.52-.069 1.045v1.005a7.076 7.076 0 0 1-.132 1.15 6.6 6.6 0 0 1-.306 1.193 2.957 2.957 0 0 1-.444.749l-.444.473a.68.68 0 0 1-.079-.365 1.153 1.153 0 0 1 .069-.375zm2.119-6.9a16.944 16.944 0 0 1 1.676-1.459l1.124-.907 1.143-.917c.572-.483 1.094-.986 1.557-1.36l1.5-1.429c.816-.8 1.232-1.2 1.232-1.23a.542.542 0 0 1 0 .158 4.089 4.089 0 0 1-.345.739 5.264 5.264 0 0 1-.483.749c-.148.2-.355.444-.6.729s-.375.4-.522.562l-.907.838-.6.522-.838.719c-.463.384-.867.71-1.2.986l-.719.552-.7.532-1.232.986c-.108.1-.276.227-.5.4s-.246.168-.276.128a6.9 6.9 0 0 1 .325-.71 2.769 2.769 0 0 1 .375-.641z" data-name="Path 571" transform="translate(-.872 -1.102)"/>
            <path id="prefix__Path_572" d="M63.789 94.97c0 .7.118 1.143.4 1.331a.582.582 0 0 0 .463.108.6.6 0 0 0 .365-.246 2.316 2.316 0 0 0 .207-.444c.059-.168.118-.256.168-.256s.089.059.079.177a5.1 5.1 0 0 1-.2.986 3.686 3.686 0 0 1-.5 1.232.986.986 0 0 1-.779.473.828.828 0 0 1-.729-.522 2.957 2.957 0 0 1-.217-1.3c0-.384.059-.986.158-1.863s.217-1.774.375-2.75c.1-.276.286-.779.562-1.5a.084.084 0 0 1 .1-.089.1.1 0 0 1 0 .089c0 .355-.089.986-.207 2.02s-.186 1.815-.245 2.554zm1.074-5.07a3.451 3.451 0 0 1 .355-.788c.237-.444.384-.66.434-.66a.567.567 0 0 1 .434.207 3.944 3.944 0 0 1 .424.483c.118-.187.246-.4.384-.641s.237-.355.286-.355a.808.808 0 0 1 .512.315.986.986 0 0 1 .315.591 1.35 1.35 0 0 1-.315.779c-.207.3-.365.444-.463.444s-.177-.079-.345-.246a4.594 4.594 0 0 0-.444-.394c-.306.631-.562.986-.739.986a.365.365 0 0 1-.2-.108l-.381-.313c-.148-.177-.257-.227-.257-.3z" data-name="Path 572" transform="translate(-.908 -1.27)"/>
            <path id="prefix__Path_573" d="M68.582 96.983a1.409 1.409 0 0 1 .418-.256.848.848 0 0 1 .4-.1 3.2 3.2 0 0 0 .552.059.848.848 0 0 0 .483-.079.67.67 0 0 0 .325-.3 1.612 1.612 0 0 1 .108-.168l.148-.207q.089-.118.148-.118s.079 0 .079.138a2.809 2.809 0 0 1-.384 1.025 3.736 3.736 0 0 1-.453.729 1.912 1.912 0 0 1-.818.572.9.9 0 0 1-.375.059h-.641a1.114 1.114 0 0 0-.719.286l-.256.217c-.079.059-.138.089-.187.069s-.059-.118 0-.3a2.681 2.681 0 0 1 .266-.532c.158-.237.315-.444.463-.631a2.72 2.72 0 0 1 .443-.463zm-.8 7.707a1.213 1.213 0 0 0 .246.266l.384.306a.335.335 0 0 0 .2.118q.276 0 .739-.986a3.558 3.558 0 0 1 .444.394c.168.168.286.246.345.246s.256-.148.463-.444a1.409 1.409 0 0 0 .345-.71.986.986 0 0 0-.315-.591.848.848 0 0 0-.522-.315 1.485 1.485 0 0 0-.276.355l-.384.641a4.2 4.2 0 0 0-.434-.483c-.187-.177-.335-.246-.424-.207s-.2.217-.434.66a3.479 3.479 0 0 0-.375.739z" data-name="Path 573" transform="translate(-.97 -1.38)"/>
            <path id="prefix__Path_574" d="M72.807 93.308c0-.118.128-.138.256-.059a2.04 2.04 0 0 1 1.124 1.8 3.942 3.942 0 0 1-.986 2.454 3.351 3.351 0 0 1-1.626.838h-.315a1.219 1.219 0 0 1 .315-.325 7.8 7.8 0 0 0 1.163-.986c.355-.355.532-.581.532-.7 0-.306-.335-.719-.986-1.262a.3.3 0 0 1-.118-.355c.158-.35.375-.813.641-1.405z" data-name="Path 574" transform="translate(-1.026 -1.343)"/>
            <path id="prefix__Path_575" d="M75.759 95.05a1.628 1.628 0 0 1-.069.591 2.228 2.228 0 0 1-.148.453.572.572 0 0 1-.217.276.5.5 0 0 1-.325.07 9.7 9.7 0 0 1 .148-1.882c.148-.8.217-1.705.394-2.681.1-.276.286-.779.572-1.5q0-.1.089-.089a.108.108 0 0 1 0 .089c0 .355-.089.986-.217 2.02s-.207 1.676-.237 2.04a3.017 3.017 0 0 0 .01.613z" data-name="Path 575" transform="translate(-1.08 -1.301)"/>
            <path id="prefix__Path_576" d="M77.838 94.852l-.079.1a.207.207 0 0 0-.059.1 1.164 1.164 0 0 0 .5 0q.371-.012.739-.059l.424-.079a1.509 1.509 0 0 1 .315-.069c.138 0 .207.059.207.2s-.108.3-.335.522a4.642 4.642 0 0 0-.493.68 7.886 7.886 0 0 1-.68.986 3.943 3.943 0 0 1-.917.877 2.08 2.08 0 0 1-1.1.3 1.173 1.173 0 0 1-.986-.522A2.316 2.316 0 0 1 75 96.5a1.882 1.882 0 0 1 .089-.434 3.329 3.329 0 0 1 .177-.434 1.518 1.518 0 0 1 .237-.345.424.424 0 0 1 .246-.168 1.863 1.863 0 0 0 .3 1.143 1.1 1.1 0 0 0 .986.394 2.159 2.159 0 0 0 1.114-.286c.5-.276.749-.532.749-.759a1.971 1.971 0 0 1-.424.049h-.724a4.012 4.012 0 0 1-.67 0c-.079 0-.108 0-.089-.108a1.873 1.873 0 0 1 .276-.591 2.75 2.75 0 0 1 .572-.641.345.345 0 0 1 .059.089.788.788 0 0 1 0 .148.335.335 0 0 1 0 .138.621.621 0 0 1-.059.158z" data-name="Path 576" transform="translate(-1.08 -1.359)"/>
            <path id="prefix__Path_577" d="M82.1 91.394c.059 0 .079 0 .069.089a2.432 2.432 0 0 1-.315.532 5.194 5.194 0 0 1-.384.552.985.985 0 0 1-.325.266s-.512.266-1.38.68a7.707 7.707 0 0 0-1.882 1.193.522.522 0 0 1-.059-.207.651.651 0 0 1 .059-.335c.187-.168.424-.375.729-.621a11.325 11.325 0 0 1 .986-.749c.365-.256.759-.5 1.163-.739a11.363 11.363 0 0 1 1.183-.611zm-2.72-4.13a3.281 3.281 0 0 1 .355-.779c.237-.444.375-.67.434-.67a.529.529 0 0 1 .424.217 3.508 3.508 0 0 1 .434.473l.384-.641c.138-.237.237-.355.276-.355a.808.808 0 0 1 .512.315 1.045 1.045 0 0 1 .325.6 1.429 1.429 0 0 1-.325.779c-.207.3-.365.444-.453.444s-.187-.089-.355-.256a4.2 4.2 0 0 0-.434-.414c-.315.621-.562.986-.749.986a.325.325 0 0 1-.2-.108l-.375-.315c-.177-.157-.256-.246-.256-.276z" data-name="Path 577" transform="translate(-1.12 -1.232)"/>
            <path id="prefix__Path_578" d="M83.115 93.46v1.124a6.772 6.772 0 0 1 0 .848 5.115 5.115 0 0 1-.286 1.321 3.756 3.756 0 0 1-.345.769 2.329 2.329 0 0 1-.2.276q-.1.089-.148.059a.089.089 0 0 1 0-.108 1.97 1.97 0 0 1 .108-.522 6.979 6.979 0 0 0 .128-.986v-1.35a10.055 10.055 0 0 1 0-1.331 2.31 2.31 0 0 1 .118-.552 5.357 5.357 0 0 1 .187-.562c.069-.177.148-.365.227-.532s.148-.306.207-.434.1-.108.138-.1a.079.079 0 0 1 0 .1V93a.752.752 0 0 0-.134.46z" data-name="Path 578" transform="translate(-1.182 -1.316)"/>
        </g>
    </g>
</svg>
