<svg id="Layer_2" data-name="Layer 2" xmlns="http://www.w3.org/2000/svg" width="33" height="33" viewBox="0 0 33 33">
  <g id="invisible_box" data-name="invisible box">
    <rect id="Rectangle_238" data-name="Rectangle 238" width="33" height="33" fill="none"/>
  </g>
  <g id="icons_Q2" data-name="icons Q2" transform="translate(1.354 4.74)">
    <path id="Path_6" data-name="Path 6" d="M30.438,7H3.354A1.354,1.354,0,0,0,2,8.354V28.667a1.354,1.354,0,0,0,1.354,1.354H30.438a1.354,1.354,0,0,0,1.354-1.354V8.354A1.354,1.354,0,0,0,30.438,7ZM29.083,27.312H4.708V13.568l11.849,6.974a.609.609,0,0,0,.677,0l11.849-7.177ZM17.234,17.427a.609.609,0,0,1-.677,0L4.708,9.708H29.083Z" transform="translate(-2 -7)" fill="#9a9a9a"/>
  </g>
</svg>
