<svg id="Layer_2" data-name="Layer 2" xmlns="http://www.w3.org/2000/svg" width="33" height="33" viewBox="0 0 33 33">
  <g id="invisible_box" data-name="invisible box">
    <rect id="Rectangle_242" data-name="Rectangle 242" width="33" height="33" fill="none"/>
  </g>
  <g id="icons_Q2" data-name="icons Q2" transform="translate(4.004 1.335)">
    <g id="Group_2" data-name="Group 2">
      <path id="Path_15" data-name="Path 15" d="M32,21.9Z" transform="translate(-13.977 -8.619)" fill="#9a9a9a"/>
      <path id="Path_16" data-name="Path 16" d="M29.569,12.679H12.932V9.342A4.765,4.765,0,0,1,17.784,4.67h1.386a5.018,5.018,0,0,1,3.466,1.4,1.424,1.424,0,0,0,1.525.334h.069a1.28,1.28,0,0,0,.782-.928,1.238,1.238,0,0,0-.366-1.141A7.691,7.691,0,0,0,19.171,2H17.784a7.487,7.487,0,0,0-7.625,7.342v3.337H7.386A1.361,1.361,0,0,0,6,14.013V30.031a1.361,1.361,0,0,0,1.386,1.335H29.569a1.361,1.361,0,0,0,1.386-1.335V14.013A1.361,1.361,0,0,0,29.569,12.679ZM28.183,28.7H8.773V15.348h19.41Z" transform="translate(-6 -2)" fill="#9a9a9a"/>
      <path id="Path_17" data-name="Path 17" d="M25.239,28.581a2.67,2.67,0,1,0-4,2.336v1.669a1.335,1.335,0,0,0,2.67,0V30.917A2.67,2.67,0,0,0,25.239,28.581Z" transform="translate(-10.162 -9.961)" fill="#9a9a9a"/>
    </g>
  </g>
</svg>
