<svg xmlns="http://www.w3.org/2000/svg" width="28" height="28" viewBox="0 0 28 28">
  <g id="Layer_2" data-name="Layer 2" transform="translate(0 0)">
    <g id="invisible_box" data-name="invisible box" transform="translate(0 0)">
      <rect id="Rectangle_242" data-name="Rectangle 242" width="28" height="28" fill="none"/>
    </g>
    <g id="icons_Q2" data-name="icons Q2" transform="translate(3.398 1.133)">
      <g id="Group_2" data-name="Group 2">
        <path id="Path_15" data-name="Path 15" d="M32,21.9Z" transform="translate(-16.708 -10.631)" fill="#d9f5f2"/>
        <path id="Path_16" data-name="Path 16" d="M26,11.061H11.882V8.229A4.043,4.043,0,0,1,16,4.265h1.176a4.258,4.258,0,0,1,2.941,1.189,1.208,1.208,0,0,0,1.294.283h.059a1.086,1.086,0,0,0,.663-.787,1.05,1.05,0,0,0-.31-.968A6.526,6.526,0,0,0,17.175,2H16a6.353,6.353,0,0,0-6.47,6.229v2.831H7.176A1.155,1.155,0,0,0,6,12.193V25.784a1.155,1.155,0,0,0,1.176,1.133H26a1.155,1.155,0,0,0,1.176-1.133V12.193A1.155,1.155,0,0,0,26,11.061ZM24.822,24.652H8.353V13.326H24.822Z" transform="translate(-6 -2)" fill="#d9f5f2"/>
        <path id="Path_17" data-name="Path 17" d="M24.43,28.181a2.265,2.265,0,1,0-3.4,1.982v1.416a1.133,1.133,0,0,0,2.265,0V30.163A2.265,2.265,0,0,0,24.43,28.181Z" transform="translate(-11.637 -12.381)" fill="#d9f5f2"/>
      </g>
    </g>
  </g>
</svg>
