<svg xmlns="http://www.w3.org/2000/svg" width="2328.531" height="1990.741" viewBox="0 0 2328.531 1990.741">
  <g id="Group_340" data-name="Group 340" transform="translate(139.242 -2038.169)">
    <path id="Path_84" data-name="Path 84" d="M4298.5,3336.144s-97.122-235.428-523.637-356.4-851.515,23.648-1266.667-50.935-333.84-400.653-333.84-400.653l-81.311,1317.481s6.966,180.235,361.455,240.313,642.106-56.393,1056.5,0,585.075,283.589,585.075,283.589Z" transform="matrix(0.998, -0.07, 0.07, 0.998, -2403.544, -183.981)" fill="#d9f5f2"/>
    <path id="Subtraction_18" data-name="Subtraction 18" d="M-14942.216,490.608h0v0c-.026-.032-2.868-3.436-8.476-9.32l125.557-1078.974c-.015-.032-1.831-3.8-5.747-10.421-3.62-6.116-9.83-15.989-18.854-28.293a502.128,502.128,0,0,0-34.375-41.71,625.78,625.78,0,0,0-52.315-50.669c-48.066-41.543-104.629-78.687-168.118-110.4-18.355-9.168-37.539-18-57.018-26.238-20.51-8.678-41.914-16.947-63.617-24.579-22.765-8-46.491-15.528-70.521-22.363-25.121-7.146-51.271-13.737-77.724-19.591-87.284-19.316-178.9-28.7-280.083-28.7-141.418,0-282.168,18.447-418.283,36.287l-1.964.258-.019,0c-67.653,8.866-137.611,18.034-206.292,24.783-36.96,3.632-70.655,6.3-103.012,8.153-36.3,2.079-70,3.09-103.036,3.09-26.344,0-52.336-.676-77.25-2.008-26.264-1.4-52.289-3.59-77.35-6.495-16.838-1.952-33.361-4.444-49.107-7.407-15.3-2.88-30.289-6.283-44.543-10.116-13.84-3.721-27.363-7.947-40.2-12.561-12.439-4.472-24.574-9.432-36.07-14.744-11.119-5.138-21.941-10.744-32.164-16.663-9.875-5.718-19.455-11.882-28.475-18.32-8.7-6.212-17.117-12.845-25.006-19.714-7.6-6.618-14.922-13.631-21.756-20.845-6.572-6.933-12.871-14.239-18.727-21.713-5.617-7.17-10.971-14.679-15.914-22.318a312.408,312.408,0,0,1-24.268-45.4,346.352,346.352,0,0,1-24.439-86.5l-.129-12.1a349.9,349.9,0,0,0,23.766,87.377,315.053,315.053,0,0,0,24.066,46.126c4.932,7.784,10.275,15.427,15.877,22.717,5.859,7.621,12.164,15.064,18.74,22.123,62.6,67.187,156.922,108.51,280.354,122.818,25.174,2.918,51.318,5.113,77.7,6.524,25.033,1.339,51.143,2.018,77.6,2.018,33.184,0,67.037-1.015,103.5-3.1,32.5-1.861,66.34-4.54,103.467-8.189,68.98-6.779,139.248-15.988,207.2-24.894l.026,0,2.014-.264.024,0c68.123-8.927,138.564-18.159,209.2-25.056,37.674-3.679,72.092-6.38,105.221-8.259,37.174-2.108,71.761-3.133,105.738-3.133,23.726,0,47.234.524,69.874,1.559,23.741,1.085,47.347,2.768,70.159,5,23.78,2.328,47.492,5.333,70.478,8.929,23.848,3.732,47.678,8.223,70.828,13.346,26.57,5.88,52.839,12.5,78.077,19.681,24.139,6.866,47.973,14.425,70.84,22.465,21.8,7.666,43.307,15.974,63.907,24.691,19.575,8.283,38.846,17.15,57.277,26.357,63.775,31.855,120.595,69.166,168.88,110.9a628.413,628.413,0,0,1,52.553,50.9,504.3,504.3,0,0,1,34.531,41.9c9.073,12.373,15.307,22.285,18.938,28.421,3.949,6.672,5.758,10.435,5.773,10.468ZM-17001.514-1205c-.17-1.214-.33-2.413-.508-3.776l-.869-81.351c-.01.06-1.395,8.531-2.152,22.589a257.966,257.966,0,0,1,2.525-31.614l1.008,94.152Z" transform="matrix(1, -0.017, 0.017, 1, 16973.611, 3162.784)" fill="#d9f5f2"/>
    <path id="Subtraction_19" data-name="Subtraction 19" d="M-15174.216,506.7h0v0l0-.006c-.32-.381-3.29-3.9-8.875-9.739-5.424-5.674-14.509-14.783-26.99-25.952-14.02-12.546-29.367-25.069-45.615-37.223-20.317-15.2-42.105-29.851-64.758-43.558-57.673-34.9-121.263-63.964-189-86.387-19.58-6.481-39.775-12.485-60.022-17.846-21.315-5.644-43.272-10.728-65.261-15.113-23.06-4.6-46.8-8.556-70.562-11.762-24.836-3.351-50.383-5.974-75.93-7.795-19.8-1.412-39.92-2.478-59.8-3.169-19.158-.666-38.671-1-57.994-1-18.814,0-38.045.32-57.157.951-18.237.6-36.944,1.507-55.6,2.688-34.568,2.189-69.624,5.327-107.168,9.6-31.639,3.6-65.271,8.033-102.82,13.565-34.437,5.073-68.144,10.464-99.718,15.55l-13.546,2.184c-30.966,5-62.987,10.162-94.347,14.893-35.039,5.286-65.748,9.489-93.883,12.851-33.682,4.024-64.6,6.975-94.535,9.022-16.184,1.106-32.287,1.953-47.861,2.516-16.309.589-32.607.888-48.441.888-20.908,0-41.836-.522-62.2-1.55-21.281-1.075-42.689-2.74-63.631-4.95-21.91-2.312-43.283-5.269-63.529-8.789-19.369-3.368-38.225-7.341-56.039-11.809-16.986-4.26-33.48-9.082-49.02-14.333-14.762-4.988-29.049-10.493-42.465-16.363-46.416-20.3-84.668-45.823-113.689-75.846a242.352,242.352,0,0,1-29.689-37.235,198.61,198.61,0,0,1-16.572-31.5,149.49,149.49,0,0,1-7.2-21.8,70.768,70.768,0,0,1-1.568-8.147l-13.793-1288.431c1.434,10.23,3.3,20.452,5.551,30.38l13.4,1251.043v.008a73.949,73.949,0,0,0,1.563,8.1,149.166,149.166,0,0,0,7.166,21.7,197.516,197.516,0,0,0,16.5,31.355,241.3,241.3,0,0,0,29.551,37.066c28.895,29.889,66.975,55.293,113.178,75.5,13.357,5.843,27.58,11.323,42.275,16.288,15.473,5.228,31.891,10.028,48.8,14.268,17.742,4.449,36.512,8.4,55.787,11.754,20.16,3.505,41.438,6.449,63.242,8.75,20.85,2.2,42.162,3.858,63.346,4.928,20.275,1.024,41.109,1.543,61.924,1.543,15.76,0,31.984-.3,48.221-.884,15.5-.56,31.533-1.4,47.641-2.5,29.8-2.038,60.582-4.975,94.1-8.98,28.014-3.347,58.584-7.531,93.453-12.791,31.15-4.7,63.036-9.843,93.871-14.817l.045-.007,13.5-2.177c31.43-5.064,64.983-10.431,99.266-15.482,37.363-5.505,70.845-9.922,102.358-13.505,37.386-4.249,72.282-7.374,106.685-9.552,18.582-1.177,37.2-2.077,55.35-2.676,19.025-.628,38.168-.947,56.895-.947,19.24,0,38.666.336,57.736,1,19.791.688,39.82,1.75,59.534,3.156,25.43,1.813,50.86,4.424,75.585,7.76,23.657,3.193,47.29,7.132,70.243,11.71,21.895,4.366,43.752,9.428,64.966,15.045,20.156,5.336,40.26,11.314,59.751,17.766,67.436,22.321,130.739,51.254,188.152,86,22.559,13.65,44.247,28.239,64.465,43.361,16.18,12.1,31.457,24.569,45.409,37.053,12.413,11.108,21.462,20.18,26.868,25.834,5.826,6.094,8.813,9.667,8.842,9.7l126.751-1089.242c-.019-.04-2.124-4.412-6.69-12a370.242,370.242,0,0,0-22.081-32.306,526.691,526.691,0,0,0-40.484-47.058,656.63,656.63,0,0,0-61.9-56.258,665.763,665.763,0,0,1,64.148,57.581,534.093,534.093,0,0,1,41.917,48.321,375.884,375.884,0,0,1,22.838,33.252c4.635,7.682,6.82,12.185,6.911,12.373Zm-2059.3-1695.618h0c-1.734-12.406-2.867-25.079-3.369-37.666-.4-10.093-.395-20.125.012-29.817a241.69,241.69,0,0,1,2.354-26.664Z" transform="matrix(1, -0.017, 0.017, 1, 17154.316, 3139.434)" fill="#d9f5f2"/>
  </g>
</svg>
