<svg xmlns="http://www.w3.org/2000/svg" xmlns:xlink="http://www.w3.org/1999/xlink" width="360" height="360" viewBox="0 0 360 360">
  <defs>
    <linearGradient id="linear-gradient" x1="1" x2="0.5" y2="1" gradientUnits="objectBoundingBox">
      <stop offset="0" stop-color="#00a9ff"/>
      <stop offset="1" stop-color="#0073ae"/>
    </linearGradient>
    <filter id="Rectangle_211" x="9.896" y="10" width="340" height="340" filterUnits="userSpaceOnUse">
      <feOffset dx="-10" dy="10" input="SourceAlpha"/>
      <feGaussianBlur stdDeviation="20" result="blur"/>
      <feFlood flood-color="#0073ae" flood-opacity="0.2"/>
      <feComposite operator="in" in2="blur"/>
      <feComposite in="SourceGraphic"/>
    </filter>
    <filter id="Rectangle_222" x="0" y="0" width="360" height="360" filterUnits="userSpaceOnUse">
      <feOffset dx="-10" dy="10" input="SourceAlpha"/>
      <feGaussianBlur stdDeviation="20" result="blur-2"/>
      <feFlood flood-color="#0073ae" flood-opacity="0.2"/>
      <feComposite operator="in" in2="blur-2"/>
      <feComposite in="SourceGraphic"/>
    </filter>
  </defs>
  <g id="Group_206" data-name="Group 206" transform="translate(-443 -731)">
    <g transform="matrix(1, 0, 0, 1, 443, 731)" filter="url(#Rectangle_211)">
      <rect id="Rectangle_211-2" data-name="Rectangle 211" width="220" height="220" rx="50" transform="translate(79.9 60)" fill="url(#linear-gradient)"/>
    </g>
    <text id="بیش_از_120_دوره_آموزشی_پروژه_محور" data-name="بیش از 120 دوره آموزشی پروژه محور" transform="translate(545 910)" fill="#fff" font-size="22" font-family="YekanBakh-Medium, Yekan Bakh" font-weight="500"><tspan x="27" y="20" xml:space="preserve"> دوره</tspan><tspan y="20">120</tspan><tspan y="20">بیش از </tspan><tspan y="20"> </tspan><tspan x="14" y="54">آموزشی پروژه محور</tspan></text>
    <g id="Layer_2" data-name="Layer 2" transform="translate(604 816)">
      <g id="invisible_box" data-name="invisible box">
        <rect id="Rectangle_207" data-name="Rectangle 207" width="58" height="58" fill="none"/>
      </g>
      <g id="icons_Q2" data-name="icons Q2" transform="translate(2.417 7.25)">
        <path id="Path_177" data-name="Path 177" d="M2,8.417V47.083A2.417,2.417,0,0,0,4.417,49.5H52.75a2.417,2.417,0,0,0,2.417-2.417V8.417A2.417,2.417,0,0,0,52.75,6H4.417A2.417,2.417,0,0,0,2,8.417Zm48.333,36.25H6.833V10.833h43.5Z" transform="translate(-2 -6)" fill="#fff"/>
        <circle id="Ellipse_22" data-name="Ellipse 22" cx="2.417" cy="2.417" r="2.417" transform="translate(7.25 7.25)" fill="#fff"/>
        <circle id="Ellipse_23" data-name="Ellipse 23" cx="2.417" cy="2.417" r="2.417" transform="translate(14.5 7.25)" fill="#fff"/>
        <circle id="Ellipse_24" data-name="Ellipse 24" cx="2.417" cy="2.417" r="2.417" transform="translate(21.75 7.25)" fill="#fff"/>
        <path id="Path_178" data-name="Path 178" d="M20.833,36.083H16V26.417A2.417,2.417,0,0,1,18.417,24h0a2.417,2.417,0,0,1,2.417,2.417Z" transform="translate(0.917 -2.25)" fill="#fff"/>
        <path id="Path_179" data-name="Path 179" d="M26.833,36.917H22v-14.5A2.417,2.417,0,0,1,24.417,20h0a2.417,2.417,0,0,1,2.417,2.417Z" transform="translate(2.167 -3.083)" fill="#fff"/>
        <path id="Path_180" data-name="Path 180" d="M32.833,35.875H28V27.417A2.417,2.417,0,0,1,30.417,25h0a2.417,2.417,0,0,1,2.417,2.417Z" transform="translate(3.417 -2.042)" fill="#fff"/>
      </g>
    </g>
    <g transform="matrix(1, 0, 0, 1, 443, 731)" filter="url(#Rectangle_222)">
      <g id="Rectangle_222-2" data-name="Rectangle 222" transform="translate(70 50)" fill="none" stroke="#00a9ff" stroke-width="3">
        <rect width="240" height="240" rx="58" stroke="none"/>
        <rect x="1.5" y="1.5" width="237" height="237" rx="56.5" fill="none"/>
      </g>
    </g>
  </g>
</svg>
