<svg id="Layer_2" data-name="Layer 2" xmlns="http://www.w3.org/2000/svg" width="58" height="58" viewBox="0 0 58 58">
  <g id="invisible_box" data-name="invisible box">
    <rect id="Rectangle_205" data-name="Rectangle 205" width="58" height="58" fill="none"/>
  </g>
  <g id="icons_Q2" data-name="icons Q2" transform="translate(2.417 7.25)">
    <path id="Path_169" data-name="Path 169" d="M16.875,27.75A10.875,10.875,0,1,0,6,16.875,10.875,10.875,0,0,0,16.875,27.75Zm0-16.917a6.042,6.042,0,1,1-6.042,6.042,6.042,6.042,0,0,1,6.042-6.042Z" transform="translate(-1.167 -6)" fill="#fff"/>
    <path id="Path_170" data-name="Path 170" d="M36.458,26.917A8.458,8.458,0,1,0,28,18.458,8.458,8.458,0,0,0,36.458,26.917Zm0-12.083a3.625,3.625,0,1,1-3.625,3.625,3.5,3.5,0,0,1,3.625-3.625Z" transform="translate(3.417 -5.167)" fill="#fff"/>
    <path id="Path_171" data-name="Path 171" d="M55.167,30.109l-1.087-.725a23.683,23.683,0,0,0-24.408,0l-.967.725a29.725,29.725,0,0,0-9.788-1.692A28.275,28.275,0,0,0,3.088,33.13L2,33.855v9.062a2.417,2.417,0,0,0,2.417,2.417h29a2.417,2.417,0,0,0,2.417-2.417V40.5H52.75a2.417,2.417,0,0,0,2.417-2.417ZM31,40.5H6.833V36.513a23.563,23.563,0,0,1,12.083-3.262A23.563,23.563,0,0,1,31,36.513Zm19.333-4.833h-14.5V33.855l-1.088-.725-.725-.483a18.488,18.488,0,0,1,16.313.242Z" transform="translate(-2 -1.834)" fill="#fff"/>
  </g>
</svg>
