<?xml version="1.0" encoding="utf-8"?>
<!-- Generator: Adobe Illustrator 25.4.1, SVG Export Plug-In . SVG Version: 6.00 Build 0)  -->
<svg version="1.1" id="Layer_1" xmlns="http://www.w3.org/2000/svg" xmlns:xlink="http://www.w3.org/1999/xlink" x="0px" y="0px"
	 viewBox="0 0 1440 1084" style="enable-background:new 0 0 1440 1084;" xml:space="preserve">
<style type="text/css">
	.st0{opacity:0;}
	.st1{fill-rule:evenodd;clip-rule:evenodd;fill:#FFFFFF;}
	.st2{fill-rule:evenodd;clip-rule:evenodd;fill:#2F90E5;}
	.st3{fill-rule:evenodd;clip-rule:evenodd;fill:#F9FBFD;fill-opacity:0.25;}
</style>
<g class="st0">
	<path id="a_00000058575298753083964690000008284381175910324916_" class="st1" d="M1446,989H6V-95h1440V989z"/>
</g>
<g>
	<path class="st2" d="M1540,555.5c-103.9-28.3-220.4-42.5-349.4-42.5c-193.5,0-231.1,93.8-424.6,93.8S510.2,513,316.7,513
		c-129,0-237.2,14.2-324.7,42.5V1058h1548V555.5z"/>
	<path class="st3" d="M1496,554.5c-103.9,28.3-220.4,42.5-349.4,42.5c-193.5,0-231.1-93.8-424.6-93.8S435,623,241.5,623
		c-129,0-226.8-22.8-293.5-68.5V-28h1548V554.5z"/>
	<path class="st3" d="M1915,644.5c-131.8,28.3-279.5,42.5-443,42.5c-245.4,0-293.1-93.8-538.5-93.8S609.1,687,363.7,687
		C200.1,687,62.9,672.8-48,644.5V2l1963,10V644.5z"/>
	<path class="st3" d="M1460,620.5c-126.5,28.3-268.2,42.5-425.2,42.5c-235.5,0-281.3-93.8-516.8-93.8S206.6,663-28.9,663
		c-157,0-288.7-14.2-395.1-42.5V-2h1884V620.5z"/>
	<path class="st2" d="M1446,1084H6v-72.9h1440V1084z"/>
</g>
</svg>
