<?xml version="1.0" encoding="utf-8"?>
<!-- Generator: Adobe Illustrator 24.1.0, SVG Export Plug-In . SVG Version: 6.00 Build 0)  -->
<svg version="1.1" id="Layer_1" xmlns="http://www.w3.org/2000/svg" xmlns:xlink="http://www.w3.org/1999/xlink" x="0px" y="0px"
	 viewBox="0 0 960 976" enable-background="new 0 0 960 976" xml:space="preserve">
<g>
	<rect fill="#5C1449" width="960" height="976"/>
	<linearGradient id="SVGID_1_" gradientUnits="userSpaceOnUse" x1="118.2342" y1="-206.0343" x2="270.131" y2="275.5096">
		<stop  offset="5.154640e-03" style="stop-color:#8B4275"/>
		<stop  offset="0.9948" style="stop-color:#5C1449"/>
	</linearGradient>
	<path fill="url(#SVGID_1_)" d="M562.12,0c-46.33,81.5-130.14,137.81-240.49,180.23C111.56,260.99,189.86,353.46,90.18,528.66
		C65.25,572.49,33.54,601.47,0,620.31V0H562.12z"/>
	<linearGradient id="SVGID_2_" gradientUnits="userSpaceOnUse" x1="745.7809" y1="1192.1343" x2="604.102" y2="636.6055">
		<stop  offset="5.154640e-03" style="stop-color:#8B4275"/>
		<stop  offset="0.9948" style="stop-color:#5C1449"/>
	</linearGradient>
	<path fill="url(#SVGID_2_)" d="M960,474.85V976H293.51c29.65-118.66,120.97-175.58,252.09-202.32
		C715.2,739.07,667.54,659,765.37,538.74C826.29,463.85,907.44,464.05,960,474.85z"/>
	<g opacity="0.7">
		<g>
			<g>
				<g>
					<linearGradient id="SVGID_3_" gradientUnits="userSpaceOnUse" x1="0" y1="793.9012" x2="10.476" y2="793.9012">
						<stop  offset="5.154640e-03" style="stop-color:#8B4275"/>
						<stop  offset="0.9948" style="stop-color:#5C1449"/>
					</linearGradient>
					<path fill="url(#SVGID_3_)" d="M10.48,788.66L0,799.14v-6C3.46,791.51,6.93,790.02,10.48,788.66z"/>
					<linearGradient id="SVGID_4_" gradientUnits="userSpaceOnUse" x1="0" y1="802.282" x2="46.6344" y2="802.282">
						<stop  offset="5.154640e-03" style="stop-color:#8B4275"/>
						<stop  offset="0.9948" style="stop-color:#5C1449"/>
					</linearGradient>
					<path fill="url(#SVGID_4_)" d="M46.63,778.96L0,825.6v-8.12l36.68-36.68C39.96,780.09,43.31,779.48,46.63,778.96z"/>
				</g>
				<g>
					<linearGradient id="SVGID_5_" gradientUnits="userSpaceOnUse" x1="0" y1="816.5837" x2="79.0776" y2="816.5837">
						<stop  offset="5.154640e-03" style="stop-color:#8B4275"/>
						<stop  offset="0.9948" style="stop-color:#5C1449"/>
					</linearGradient>
					<path fill="url(#SVGID_5_)" d="M79.08,777.11L0,856.18v-8.16L71.02,777C73.7,776.96,76.4,777,79.08,777.11z"/>
					<linearGradient id="SVGID_6_" gradientUnits="userSpaceOnUse" x1="0" y1="830.5888" x2="102.9672" y2="830.5888">
						<stop  offset="5.154640e-03" style="stop-color:#8B4275"/>
						<stop  offset="0.9948" style="stop-color:#5C1449"/>
					</linearGradient>
					<path fill="url(#SVGID_6_)" d="M102.97,779.66L0,882.62v-8.12l95.95-95.95C98.3,778.86,100.66,779.22,102.97,779.66z"/>
				</g>
			</g>
			<g>
				<g>
					<linearGradient id="SVGID_7_" gradientUnits="userSpaceOnUse" x1="0" y1="849.802" x2="128.8656" y2="849.802">
						<stop  offset="5.154640e-03" style="stop-color:#8B4275"/>
						<stop  offset="0.9948" style="stop-color:#5C1449"/>
					</linearGradient>
					<path fill="url(#SVGID_7_)" d="M128.87,786.35L0,915.22v-8.16l122.67-122.67C124.76,784.99,126.81,785.64,128.87,786.35z"/>
					<linearGradient id="SVGID_8_" gradientUnits="userSpaceOnUse" x1="0" y1="866.6176" x2="147.5928" y2="866.6176">
						<stop  offset="5.154640e-03" style="stop-color:#8B4275"/>
						<stop  offset="0.9948" style="stop-color:#5C1449"/>
					</linearGradient>
					<path fill="url(#SVGID_8_)" d="M147.59,794.11L0,941.7v-8.16l142.02-142C143.88,792.36,145.74,793.22,147.59,794.11z"/>
				</g>
				<g>
					<linearGradient id="SVGID_9_" gradientUnits="userSpaceOnUse" x1="0" y1="887.1376" x2="167.0544" y2="887.1376">
						<stop  offset="5.154640e-03" style="stop-color:#8B4275"/>
						<stop  offset="0.9948" style="stop-color:#5C1449"/>
					</linearGradient>
					<path fill="url(#SVGID_9_)" d="M167.05,805.19L0,972.24v-8.14l162.06-162.06C163.73,803.05,165.39,804.11,167.05,805.19z"/>
					<linearGradient id="SVGID_10_" gradientUnits="userSpaceOnUse" x1="14.5584" y1="894.4276" x2="182.2176" y2="894.4276">
						<stop  offset="5.154640e-03" style="stop-color:#8B4275"/>
						<stop  offset="0.9948" style="stop-color:#5C1449"/>
					</linearGradient>
					<path fill="url(#SVGID_10_)" d="M182.22,816.46L22.7,976h-8.14l163.17-163.14C179.26,814.02,180.75,815.23,182.22,816.46z"/>
				</g>
			</g>
		</g>
		<g>
			<g>
				<g>
					<linearGradient id="SVGID_11_" gradientUnits="userSpaceOnUse" x1="47.1312" y1="902.0956" x2="198.936" y2="902.0956">
						<stop  offset="5.154640e-03" style="stop-color:#8B4275"/>
						<stop  offset="0.9948" style="stop-color:#5C1449"/>
					</linearGradient>
					<path fill="url(#SVGID_11_)" d="M198.94,832.36L55.3,976h-8.16l147.81-147.81C196.3,829.55,197.66,830.96,198.94,832.36z"/>
					<linearGradient id="SVGID_12_" gradientUnits="userSpaceOnUse" x1="73.6128" y1="909.1264" x2="210.9024" y2="909.1264">
						<stop  offset="5.154640e-03" style="stop-color:#8B4275"/>
						<stop  offset="0.9948" style="stop-color:#5C1449"/>
					</linearGradient>
					<path fill="url(#SVGID_12_)" d="M210.9,846.88L81.78,976h-8.16l133.75-133.75C208.59,843.79,209.76,845.32,210.9,846.88z"/>
				</g>
				<g>
					<linearGradient id="SVGID_13_" gradientUnits="userSpaceOnUse" x1="104.1768" y1="918.166" x2="222.8472" y2="918.166">
						<stop  offset="5.154640e-03" style="stop-color:#8B4275"/>
						<stop  offset="0.9948" style="stop-color:#5C1449"/>
					</linearGradient>
					<path fill="url(#SVGID_13_)" d="M222.85,865.49L112.34,976h-8.16l115.67-115.67C220.88,862.04,221.88,863.77,222.85,865.49z"/>
					<linearGradient id="SVGID_14_" gradientUnits="userSpaceOnUse" x1="130.6584" y1="926.8492" x2="231.4008" y2="926.8492">
						<stop  offset="5.154640e-03" style="stop-color:#8B4275"/>
						<stop  offset="0.9948" style="stop-color:#5C1449"/>
					</linearGradient>
					<path fill="url(#SVGID_14_)" d="M231.4,883.38L138.78,976h-8.12l98.3-98.3C229.82,879.58,230.62,881.46,231.4,883.38z"/>
				</g>
			</g>
			<g>
				<g>
					<linearGradient id="SVGID_15_" gradientUnits="userSpaceOnUse" x1="163.2096" y1="938.7832" x2="239.3496" y2="938.7832">
						<stop  offset="5.154640e-03" style="stop-color:#8B4275"/>
						<stop  offset="0.9948" style="stop-color:#5C1449"/>
					</linearGradient>
					<path fill="url(#SVGID_15_)" d="M239.35,908.02L171.37,976h-8.16l74.43-74.43C238.27,903.7,238.83,905.84,239.35,908.02z"/>
					<linearGradient id="SVGID_16_" gradientUnits="userSpaceOnUse" x1="189.6912" y1="949.6912" x2="243.216" y2="949.6912">
						<stop  offset="5.154640e-03" style="stop-color:#8B4275"/>
						<stop  offset="0.9948" style="stop-color:#5C1449"/>
					</linearGradient>
					<path fill="url(#SVGID_16_)" d="M243.22,930.64L197.86,976h-8.16l52.62-52.62C242.68,925.8,242.98,928.22,243.22,930.64z"/>
				</g>
				<g>
					<linearGradient id="SVGID_17_" gradientUnits="userSpaceOnUse" x1="220.2336" y1="964.0768" x2="244.08" y2="964.0768">
						<stop  offset="5.154640e-03" style="stop-color:#8B4275"/>
						<stop  offset="0.9948" style="stop-color:#5C1449"/>
					</linearGradient>
					<path fill="url(#SVGID_17_)" d="M244.08,952.15c-0.04,2.87-0.19,5.7-0.39,8.55L228.4,976h-8.16L244.08,952.15z"/>
				</g>
			</g>
		</g>
	</g>
	<g opacity="0.26">
		<g>
			<g>
				<g>
					<path fill="#F7FAFB" d="M804.7,105.6l67.81,67.81c-3.48-1.35-6.89-2.87-10.24-4.56l-53.01-53.01
						C807.56,112.48,806.04,109.06,804.7,105.6z"/>
					<path fill="#F7FAFB" d="M797.96,80.41l99.72,99.72c-2.33-0.35-4.65-0.78-6.94-1.27l-91.51-91.51
						C798.74,85.06,798.31,82.74,797.96,80.41z"/>
				</g>
				<g>
					<path fill="#F7FAFB" d="M796.65,57.84l123.61,123.61c-1.86,0.07-3.73,0.1-5.6,0.07L796.58,63.44
						C796.56,61.57,796.58,59.7,796.65,57.84z"/>
					<path fill="#F7FAFB" d="M798.43,41.19L936.9,179.67c-1.62,0.3-3.25,0.55-4.89,0.77L797.66,46.08
						C797.88,44.45,798.13,42.81,798.43,41.19z"/>
				</g>
			</g>
			<g>
				<g>
					<path fill="#F7FAFB" d="M803.1,23.17l151.82,151.82c-1.41,0.5-2.85,0.96-4.3,1.38l-148.9-148.9
						C802.15,26.03,802.61,24.59,803.1,23.17z"/>
					<path fill="#F7FAFB" d="M960,161.63v5.68L806.7,14.02c0.56-1.3,1.17-2.61,1.79-3.89L960,161.63z"/>
				</g>
				<g>
					<path fill="#F7FAFB" d="M960,140.36v5.68L814.01,0.04c0-0.02,0.02-0.02,0.02-0.04h5.62L960,140.36z"/>
					<polygon fill="#F7FAFB" points="960,121.93 960,127.61 832.39,0 838.07,0 					"/>
				</g>
			</g>
		</g>
		<g>
			<g>
				<g>
					<polygon fill="#F7FAFB" points="960,99.25 960,104.91 855.09,0 860.75,0 					"/>
					<polygon fill="#F7FAFB" points="960,80.81 960,86.49 873.51,0 879.19,0 					"/>
				</g>
				<g>
					<polygon fill="#F7FAFB" points="960,59.53 960,65.21 894.77,0 900.47,0 					"/>
					<polygon fill="#F7FAFB" points="960,41.13 960,46.79 913.21,0 918.87,0 					"/>
				</g>
			</g>
			<g>
				<g>
					<polygon fill="#F7FAFB" points="960,18.42 960,24.11 935.89,0 941.58,0 					"/>
					<polygon fill="#F7FAFB" points="960,0 960,5.66 954.34,0 					"/>
				</g>
			</g>
		</g>
	</g>
</g>
</svg>
